<svg width="1920" height="1050" viewBox="0 0 1920 1050" fill="none" xmlns="http://www.w3.org/2000/svg">
<g clip-path="url(#clip0_13_69)">
<mask id="path-1-inside-1_13_69" fill="white">
<path d="M0 0H150V150H0V0Z"/>
</mask>
<path d="M150 150V152H152V150H150ZM150 0H148V150H150H152V0H150ZM150 150V148H0V150V152H150V150Z" fill="#020202" fill-opacity="0.42" mask="url(#path-1-inside-1_13_69)"/>
<mask id="path-3-inside-2_13_69" fill="white">
<path d="M150 0H300V150H150V0Z"/>
</mask>
<path d="M300 150V152H302V150H300ZM300 0H298V150H300H302V0H300ZM300 150V148H150V150V152H300V150Z" fill="#020202" fill-opacity="0.42" mask="url(#path-3-inside-2_13_69)"/>
<mask id="path-5-inside-3_13_69" fill="white">
<path d="M300 0H450V150H300V0Z"/>
</mask>
<path d="M450 150V152H452V150H450ZM450 0H448V150H450H452V0H450ZM450 150V148H300V150V152H450V150Z" fill="#020202" fill-opacity="0.42" mask="url(#path-5-inside-3_13_69)"/>
<mask id="path-7-inside-4_13_69" fill="white">
<path d="M450 0H600V150H450V0Z"/>
</mask>
<path d="M600 150V152H602V150H600ZM600 0H598V150H600H602V0H600ZM600 150V148H450V150V152H600V150Z" fill="#020202" fill-opacity="0.42" mask="url(#path-7-inside-4_13_69)"/>
<mask id="path-9-inside-5_13_69" fill="white">
<path d="M600 0H750V150H600V0Z"/>
</mask>
<path d="M750 150V152H752V150H750ZM750 0H748V150H750H752V0H750ZM750 150V148H600V150V152H750V150Z" fill="#020202" fill-opacity="0.42" mask="url(#path-9-inside-5_13_69)"/>
<mask id="path-11-inside-6_13_69" fill="white">
<path d="M750 0H900V150H750V0Z"/>
</mask>
<path d="M900 150V152H902V150H900ZM900 0H898V150H900H902V0H900ZM900 150V148H750V150V152H900V150Z" fill="#020202" fill-opacity="0.42" mask="url(#path-11-inside-6_13_69)"/>
<mask id="path-13-inside-7_13_69" fill="white">
<path d="M900 0H1050V150H900V0Z"/>
</mask>
<path d="M1050 150V152H1052V150H1050ZM1050 0H1048V150H1050H1052V0H1050ZM1050 150V148H900V150V152H1050V150Z" fill="#020202" fill-opacity="0.42" mask="url(#path-13-inside-7_13_69)"/>
<mask id="path-15-inside-8_13_69" fill="white">
<path d="M1050 0H1200V150H1050V0Z"/>
</mask>
<path d="M1200 150V152H1202V150H1200ZM1200 0H1198V150H1200H1202V0H1200ZM1200 150V148H1050V150V152H1200V150Z" fill="#020202" fill-opacity="0.42" mask="url(#path-15-inside-8_13_69)"/>
<mask id="path-17-inside-9_13_69" fill="white">
<path d="M1200 0H1350V150H1200V0Z"/>
</mask>
<path d="M1350 150V152H1352V150H1350ZM1350 0H1348V150H1350H1352V0H1350ZM1350 150V148H1200V150V152H1350V150Z" fill="#020202" fill-opacity="0.42" mask="url(#path-17-inside-9_13_69)"/>
<mask id="path-19-inside-10_13_69" fill="white">
<path d="M1350 0H1500V150H1350V0Z"/>
</mask>
<path d="M1500 150V152H1502V150H1500ZM1500 0H1498V150H1500H1502V0H1500ZM1500 150V148H1350V150V152H1500V150Z" fill="#020202" fill-opacity="0.42" mask="url(#path-19-inside-10_13_69)"/>
<mask id="path-21-inside-11_13_69" fill="white">
<path d="M1500 0H1650V150H1500V0Z"/>
</mask>
<path d="M1650 150V152H1652V150H1650ZM1650 0H1648V150H1650H1652V0H1650ZM1650 150V148H1500V150V152H1650V150Z" fill="#020202" fill-opacity="0.42" mask="url(#path-21-inside-11_13_69)"/>
<mask id="path-23-inside-12_13_69" fill="white">
<path d="M1650 0H1800V150H1650V0Z"/>
</mask>
<path d="M1800 150V152H1802V150H1800ZM1800 0H1798V150H1800H1802V0H1800ZM1800 150V148H1650V150V152H1800V150Z" fill="#020202" fill-opacity="0.42" mask="url(#path-23-inside-12_13_69)"/>
<mask id="path-25-inside-13_13_69" fill="white">
<path d="M1800 0H1950V150H1800V0Z"/>
</mask>
<path d="M1950 150V152H1952V150H1950ZM1950 0H1948V150H1950H1952V0H1950ZM1950 150V148H1800V150V152H1950V150Z" fill="#020202" fill-opacity="0.42" mask="url(#path-25-inside-13_13_69)"/>
<mask id="path-27-inside-14_13_69" fill="white">
<path d="M0 150H150V300H0V150Z"/>
</mask>
<path d="M150 300V302H152V300H150ZM150 150H148V300H150H152V150H150ZM150 300V298H0V300V302H150V300Z" fill="#020202" fill-opacity="0.42" mask="url(#path-27-inside-14_13_69)"/>
<mask id="path-29-inside-15_13_69" fill="white">
<path d="M150 150H300V300H150V150Z"/>
</mask>
<path d="M300 300V302H302V300H300ZM300 150H298V300H300H302V150H300ZM300 300V298H150V300V302H300V300Z" fill="#020202" fill-opacity="0.42" mask="url(#path-29-inside-15_13_69)"/>
<mask id="path-31-inside-16_13_69" fill="white">
<path d="M300 150H450V300H300V150Z"/>
</mask>
<path d="M450 300V302H452V300H450ZM450 150H448V300H450H452V150H450ZM450 300V298H300V300V302H450V300Z" fill="#020202" fill-opacity="0.42" mask="url(#path-31-inside-16_13_69)"/>
<mask id="path-33-inside-17_13_69" fill="white">
<path d="M450 150H600V300H450V150Z"/>
</mask>
<path d="M600 300V302H602V300H600ZM600 150H598V300H600H602V150H600ZM600 300V298H450V300V302H600V300Z" fill="#020202" fill-opacity="0.42" mask="url(#path-33-inside-17_13_69)"/>
<mask id="path-35-inside-18_13_69" fill="white">
<path d="M600 150H750V300H600V150Z"/>
</mask>
<path d="M750 300V302H752V300H750ZM750 150H748V300H750H752V150H750ZM750 300V298H600V300V302H750V300Z" fill="#020202" fill-opacity="0.42" mask="url(#path-35-inside-18_13_69)"/>
<mask id="path-37-inside-19_13_69" fill="white">
<path d="M750 150H900V300H750V150Z"/>
</mask>
<path d="M900 300V302H902V300H900ZM900 150H898V300H900H902V150H900ZM900 300V298H750V300V302H900V300Z" fill="#020202" fill-opacity="0.42" mask="url(#path-37-inside-19_13_69)"/>
<mask id="path-39-inside-20_13_69" fill="white">
<path d="M900 150H1050V300H900V150Z"/>
</mask>
<path d="M1050 300V302H1052V300H1050ZM1050 150H1048V300H1050H1052V150H1050ZM1050 300V298H900V300V302H1050V300Z" fill="#020202" fill-opacity="0.42" mask="url(#path-39-inside-20_13_69)"/>
<mask id="path-41-inside-21_13_69" fill="white">
<path d="M1050 150H1200V300H1050V150Z"/>
</mask>
<path d="M1200 300V302H1202V300H1200ZM1200 150H1198V300H1200H1202V150H1200ZM1200 300V298H1050V300V302H1200V300Z" fill="#020202" fill-opacity="0.42" mask="url(#path-41-inside-21_13_69)"/>
<mask id="path-43-inside-22_13_69" fill="white">
<path d="M1200 150H1350V300H1200V150Z"/>
</mask>
<path d="M1350 300V302H1352V300H1350ZM1350 150H1348V300H1350H1352V150H1350ZM1350 300V298H1200V300V302H1350V300Z" fill="#020202" fill-opacity="0.42" mask="url(#path-43-inside-22_13_69)"/>
<mask id="path-45-inside-23_13_69" fill="white">
<path d="M1350 150H1500V300H1350V150Z"/>
</mask>
<path d="M1500 300V302H1502V300H1500ZM1500 150H1498V300H1500H1502V150H1500ZM1500 300V298H1350V300V302H1500V300Z" fill="#020202" fill-opacity="0.42" mask="url(#path-45-inside-23_13_69)"/>
<mask id="path-47-inside-24_13_69" fill="white">
<path d="M1500 150H1650V300H1500V150Z"/>
</mask>
<path d="M1650 300V302H1652V300H1650ZM1650 150H1648V300H1650H1652V150H1650ZM1650 300V298H1500V300V302H1650V300Z" fill="#020202" fill-opacity="0.42" mask="url(#path-47-inside-24_13_69)"/>
<mask id="path-49-inside-25_13_69" fill="white">
<path d="M1650 150H1800V300H1650V150Z"/>
</mask>
<path d="M1800 300V302H1802V300H1800ZM1800 150H1798V300H1800H1802V150H1800ZM1800 300V298H1650V300V302H1800V300Z" fill="#020202" fill-opacity="0.42" mask="url(#path-49-inside-25_13_69)"/>
<mask id="path-51-inside-26_13_69" fill="white">
<path d="M1800 150H1950V300H1800V150Z"/>
</mask>
<path d="M1950 300V302H1952V300H1950ZM1950 150H1948V300H1950H1952V150H1950ZM1950 300V298H1800V300V302H1950V300Z" fill="#020202" fill-opacity="0.42" mask="url(#path-51-inside-26_13_69)"/>
<mask id="path-53-inside-27_13_69" fill="white">
<path d="M0 300H150V450H0V300Z"/>
</mask>
<path d="M150 450V452H152V450H150ZM150 300H148V450H150H152V300H150ZM150 450V448H0V450V452H150V450Z" fill="#020202" fill-opacity="0.42" mask="url(#path-53-inside-27_13_69)"/>
<mask id="path-55-inside-28_13_69" fill="white">
<path d="M150 300H300V450H150V300Z"/>
</mask>
<path d="M300 450V452H302V450H300ZM300 300H298V450H300H302V300H300ZM300 450V448H150V450V452H300V450Z" fill="#020202" fill-opacity="0.42" mask="url(#path-55-inside-28_13_69)"/>
<mask id="path-57-inside-29_13_69" fill="white">
<path d="M300 300H450V450H300V300Z"/>
</mask>
<path d="M450 450V452H452V450H450ZM450 300H448V450H450H452V300H450ZM450 450V448H300V450V452H450V450Z" fill="#020202" fill-opacity="0.42" mask="url(#path-57-inside-29_13_69)"/>
<mask id="path-59-inside-30_13_69" fill="white">
<path d="M450 300H600V450H450V300Z"/>
</mask>
<path d="M600 450V452H602V450H600ZM600 300H598V450H600H602V300H600ZM600 450V448H450V450V452H600V450Z" fill="#020202" fill-opacity="0.42" mask="url(#path-59-inside-30_13_69)"/>
<mask id="path-61-inside-31_13_69" fill="white">
<path d="M600 300H750V450H600V300Z"/>
</mask>
<path d="M750 450V452H752V450H750ZM750 300H748V450H750H752V300H750ZM750 450V448H600V450V452H750V450Z" fill="#020202" fill-opacity="0.42" mask="url(#path-61-inside-31_13_69)"/>
<mask id="path-63-inside-32_13_69" fill="white">
<path d="M750 300H900V450H750V300Z"/>
</mask>
<path d="M900 450V452H902V450H900ZM900 300H898V450H900H902V300H900ZM900 450V448H750V450V452H900V450Z" fill="#020202" fill-opacity="0.42" mask="url(#path-63-inside-32_13_69)"/>
<mask id="path-65-inside-33_13_69" fill="white">
<path d="M900 300H1050V450H900V300Z"/>
</mask>
<path d="M1050 450V452H1052V450H1050ZM1050 300H1048V450H1050H1052V300H1050ZM1050 450V448H900V450V452H1050V450Z" fill="#020202" fill-opacity="0.42" mask="url(#path-65-inside-33_13_69)"/>
<mask id="path-67-inside-34_13_69" fill="white">
<path d="M1050 300H1200V450H1050V300Z"/>
</mask>
<path d="M1200 450V452H1202V450H1200ZM1200 300H1198V450H1200H1202V300H1200ZM1200 450V448H1050V450V452H1200V450Z" fill="#020202" fill-opacity="0.42" mask="url(#path-67-inside-34_13_69)"/>
<mask id="path-69-inside-35_13_69" fill="white">
<path d="M1200 300H1350V450H1200V300Z"/>
</mask>
<path d="M1350 450V452H1352V450H1350ZM1350 300H1348V450H1350H1352V300H1350ZM1350 450V448H1200V450V452H1350V450Z" fill="#020202" fill-opacity="0.42" mask="url(#path-69-inside-35_13_69)"/>
<mask id="path-71-inside-36_13_69" fill="white">
<path d="M1350 300H1500V450H1350V300Z"/>
</mask>
<path d="M1500 450V452H1502V450H1500ZM1500 300H1498V450H1500H1502V300H1500ZM1500 450V448H1350V450V452H1500V450Z" fill="#020202" fill-opacity="0.42" mask="url(#path-71-inside-36_13_69)"/>
<mask id="path-73-inside-37_13_69" fill="white">
<path d="M1500 300H1650V450H1500V300Z"/>
</mask>
<path d="M1650 450V452H1652V450H1650ZM1650 300H1648V450H1650H1652V300H1650ZM1650 450V448H1500V450V452H1650V450Z" fill="#020202" fill-opacity="0.42" mask="url(#path-73-inside-37_13_69)"/>
<mask id="path-75-inside-38_13_69" fill="white">
<path d="M1650 300H1800V450H1650V300Z"/>
</mask>
<path d="M1800 450V452H1802V450H1800ZM1800 300H1798V450H1800H1802V300H1800ZM1800 450V448H1650V450V452H1800V450Z" fill="#020202" fill-opacity="0.42" mask="url(#path-75-inside-38_13_69)"/>
<mask id="path-77-inside-39_13_69" fill="white">
<path d="M1800 300H1950V450H1800V300Z"/>
</mask>
<path d="M1950 450V452H1952V450H1950ZM1950 300H1948V450H1950H1952V300H1950ZM1950 450V448H1800V450V452H1950V450Z" fill="#020202" fill-opacity="0.42" mask="url(#path-77-inside-39_13_69)"/>
<mask id="path-79-inside-40_13_69" fill="white">
<path d="M0 450H150V600H0V450Z"/>
</mask>
<path d="M150 600V602H152V600H150ZM150 450H148V600H150H152V450H150ZM150 600V598H0V600V602H150V600Z" fill="#020202" fill-opacity="0.42" mask="url(#path-79-inside-40_13_69)"/>
<mask id="path-81-inside-41_13_69" fill="white">
<path d="M150 450H300V600H150V450Z"/>
</mask>
<path d="M300 600V602H302V600H300ZM300 450H298V600H300H302V450H300ZM300 600V598H150V600V602H300V600Z" fill="#020202" fill-opacity="0.42" mask="url(#path-81-inside-41_13_69)"/>
<mask id="path-83-inside-42_13_69" fill="white">
<path d="M300 450H450V600H300V450Z"/>
</mask>
<path d="M450 600V602H452V600H450ZM450 450H448V600H450H452V450H450ZM450 600V598H300V600V602H450V600Z" fill="#020202" fill-opacity="0.42" mask="url(#path-83-inside-42_13_69)"/>
<mask id="path-85-inside-43_13_69" fill="white">
<path d="M450 450H600V600H450V450Z"/>
</mask>
<path d="M600 600V602H602V600H600ZM600 450H598V600H600H602V450H600ZM600 600V598H450V600V602H600V600Z" fill="#020202" fill-opacity="0.42" mask="url(#path-85-inside-43_13_69)"/>
<mask id="path-87-inside-44_13_69" fill="white">
<path d="M600 450H750V600H600V450Z"/>
</mask>
<path d="M750 600V602H752V600H750ZM750 450H748V600H750H752V450H750ZM750 600V598H600V600V602H750V600Z" fill="#020202" fill-opacity="0.42" mask="url(#path-87-inside-44_13_69)"/>
<mask id="path-89-inside-45_13_69" fill="white">
<path d="M750 450H900V600H750V450Z"/>
</mask>
<path d="M900 600V602H902V600H900ZM900 450H898V600H900H902V450H900ZM900 600V598H750V600V602H900V600Z" fill="#020202" fill-opacity="0.42" mask="url(#path-89-inside-45_13_69)"/>
<mask id="path-91-inside-46_13_69" fill="white">
<path d="M900 450H1050V600H900V450Z"/>
</mask>
<path d="M1050 600V602H1052V600H1050ZM1050 450H1048V600H1050H1052V450H1050ZM1050 600V598H900V600V602H1050V600Z" fill="#020202" fill-opacity="0.42" mask="url(#path-91-inside-46_13_69)"/>
<mask id="path-93-inside-47_13_69" fill="white">
<path d="M1050 450H1200V600H1050V450Z"/>
</mask>
<path d="M1200 600V602H1202V600H1200ZM1200 450H1198V600H1200H1202V450H1200ZM1200 600V598H1050V600V602H1200V600Z" fill="#020202" fill-opacity="0.42" mask="url(#path-93-inside-47_13_69)"/>
<mask id="path-95-inside-48_13_69" fill="white">
<path d="M1200 450H1350V600H1200V450Z"/>
</mask>
<path d="M1350 600V602H1352V600H1350ZM1350 450H1348V600H1350H1352V450H1350ZM1350 600V598H1200V600V602H1350V600Z" fill="#020202" fill-opacity="0.42" mask="url(#path-95-inside-48_13_69)"/>
<mask id="path-97-inside-49_13_69" fill="white">
<path d="M1350 450H1500V600H1350V450Z"/>
</mask>
<path d="M1500 600V602H1502V600H1500ZM1500 450H1498V600H1500H1502V450H1500ZM1500 600V598H1350V600V602H1500V600Z" fill="#020202" fill-opacity="0.42" mask="url(#path-97-inside-49_13_69)"/>
<mask id="path-99-inside-50_13_69" fill="white">
<path d="M1500 450H1650V600H1500V450Z"/>
</mask>
<path d="M1650 600V602H1652V600H1650ZM1650 450H1648V600H1650H1652V450H1650ZM1650 600V598H1500V600V602H1650V600Z" fill="#020202" fill-opacity="0.42" mask="url(#path-99-inside-50_13_69)"/>
<mask id="path-101-inside-51_13_69" fill="white">
<path d="M1650 450H1800V600H1650V450Z"/>
</mask>
<path d="M1800 600V602H1802V600H1800ZM1800 450H1798V600H1800H1802V450H1800ZM1800 600V598H1650V600V602H1800V600Z" fill="#020202" fill-opacity="0.42" mask="url(#path-101-inside-51_13_69)"/>
<mask id="path-103-inside-52_13_69" fill="white">
<path d="M1800 450H1950V600H1800V450Z"/>
</mask>
<path d="M1950 600V602H1952V600H1950ZM1950 450H1948V600H1950H1952V450H1950ZM1950 600V598H1800V600V602H1950V600Z" fill="#020202" fill-opacity="0.42" mask="url(#path-103-inside-52_13_69)"/>
<mask id="path-105-inside-53_13_69" fill="white">
<path d="M0 600H150V750H0V600Z"/>
</mask>
<path d="M150 750V752H152V750H150ZM150 600H148V750H150H152V600H150ZM150 750V748H0V750V752H150V750Z" fill="#020202" fill-opacity="0.42" mask="url(#path-105-inside-53_13_69)"/>
<mask id="path-107-inside-54_13_69" fill="white">
<path d="M150 600H300V750H150V600Z"/>
</mask>
<path d="M300 750V752H302V750H300ZM300 600H298V750H300H302V600H300ZM300 750V748H150V750V752H300V750Z" fill="#020202" fill-opacity="0.42" mask="url(#path-107-inside-54_13_69)"/>
<mask id="path-109-inside-55_13_69" fill="white">
<path d="M300 600H450V750H300V600Z"/>
</mask>
<path d="M450 750V752H452V750H450ZM450 600H448V750H450H452V600H450ZM450 750V748H300V750V752H450V750Z" fill="#020202" fill-opacity="0.42" mask="url(#path-109-inside-55_13_69)"/>
<mask id="path-111-inside-56_13_69" fill="white">
<path d="M450 600H600V750H450V600Z"/>
</mask>
<path d="M600 750V752H602V750H600ZM600 600H598V750H600H602V600H600ZM600 750V748H450V750V752H600V750Z" fill="#020202" fill-opacity="0.42" mask="url(#path-111-inside-56_13_69)"/>
<mask id="path-113-inside-57_13_69" fill="white">
<path d="M600 600H750V750H600V600Z"/>
</mask>
<path d="M750 750V752H752V750H750ZM750 600H748V750H750H752V600H750ZM750 750V748H600V750V752H750V750Z" fill="#020202" fill-opacity="0.42" mask="url(#path-113-inside-57_13_69)"/>
<mask id="path-115-inside-58_13_69" fill="white">
<path d="M750 600H900V750H750V600Z"/>
</mask>
<path d="M900 750V752H902V750H900ZM900 600H898V750H900H902V600H900ZM900 750V748H750V750V752H900V750Z" fill="#020202" fill-opacity="0.42" mask="url(#path-115-inside-58_13_69)"/>
<mask id="path-117-inside-59_13_69" fill="white">
<path d="M900 600H1050V750H900V600Z"/>
</mask>
<path d="M1050 750V752H1052V750H1050ZM1050 600H1048V750H1050H1052V600H1050ZM1050 750V748H900V750V752H1050V750Z" fill="#020202" fill-opacity="0.42" mask="url(#path-117-inside-59_13_69)"/>
<mask id="path-119-inside-60_13_69" fill="white">
<path d="M1050 600H1200V750H1050V600Z"/>
</mask>
<path d="M1200 750V752H1202V750H1200ZM1200 600H1198V750H1200H1202V600H1200ZM1200 750V748H1050V750V752H1200V750Z" fill="#020202" fill-opacity="0.42" mask="url(#path-119-inside-60_13_69)"/>
<mask id="path-121-inside-61_13_69" fill="white">
<path d="M1200 600H1350V750H1200V600Z"/>
</mask>
<path d="M1350 750V752H1352V750H1350ZM1350 600H1348V750H1350H1352V600H1350ZM1350 750V748H1200V750V752H1350V750Z" fill="#020202" fill-opacity="0.42" mask="url(#path-121-inside-61_13_69)"/>
<mask id="path-123-inside-62_13_69" fill="white">
<path d="M1350 600H1500V750H1350V600Z"/>
</mask>
<path d="M1500 750V752H1502V750H1500ZM1500 600H1498V750H1500H1502V600H1500ZM1500 750V748H1350V750V752H1500V750Z" fill="#020202" fill-opacity="0.42" mask="url(#path-123-inside-62_13_69)"/>
<mask id="path-125-inside-63_13_69" fill="white">
<path d="M1500 600H1650V750H1500V600Z"/>
</mask>
<path d="M1650 750V752H1652V750H1650ZM1650 600H1648V750H1650H1652V600H1650ZM1650 750V748H1500V750V752H1650V750Z" fill="#020202" fill-opacity="0.42" mask="url(#path-125-inside-63_13_69)"/>
<mask id="path-127-inside-64_13_69" fill="white">
<path d="M1650 600H1800V750H1650V600Z"/>
</mask>
<path d="M1800 750V752H1802V750H1800ZM1800 600H1798V750H1800H1802V600H1800ZM1800 750V748H1650V750V752H1800V750Z" fill="#020202" fill-opacity="0.42" mask="url(#path-127-inside-64_13_69)"/>
<mask id="path-129-inside-65_13_69" fill="white">
<path d="M1800 600H1950V750H1800V600Z"/>
</mask>
<path d="M1950 750V752H1952V750H1950ZM1950 600H1948V750H1950H1952V600H1950ZM1950 750V748H1800V750V752H1950V750Z" fill="#020202" fill-opacity="0.42" mask="url(#path-129-inside-65_13_69)"/>
<mask id="path-131-inside-66_13_69" fill="white">
<path d="M0 750H150V900H0V750Z"/>
</mask>
<path d="M150 900V902H152V900H150ZM150 750H148V900H150H152V750H150ZM150 900V898H0V900V902H150V900Z" fill="#020202" fill-opacity="0.42" mask="url(#path-131-inside-66_13_69)"/>
<mask id="path-133-inside-67_13_69" fill="white">
<path d="M150 750H300V900H150V750Z"/>
</mask>
<path d="M300 900V902H302V900H300ZM300 750H298V900H300H302V750H300ZM300 900V898H150V900V902H300V900Z" fill="#020202" fill-opacity="0.42" mask="url(#path-133-inside-67_13_69)"/>
<mask id="path-135-inside-68_13_69" fill="white">
<path d="M300 750H450V900H300V750Z"/>
</mask>
<path d="M450 900V902H452V900H450ZM450 750H448V900H450H452V750H450ZM450 900V898H300V900V902H450V900Z" fill="#020202" fill-opacity="0.42" mask="url(#path-135-inside-68_13_69)"/>
<mask id="path-137-inside-69_13_69" fill="white">
<path d="M450 750H600V900H450V750Z"/>
</mask>
<path d="M600 900V902H602V900H600ZM600 750H598V900H600H602V750H600ZM600 900V898H450V900V902H600V900Z" fill="#020202" fill-opacity="0.42" mask="url(#path-137-inside-69_13_69)"/>
<mask id="path-139-inside-70_13_69" fill="white">
<path d="M600 750H750V900H600V750Z"/>
</mask>
<path d="M750 900V902H752V900H750ZM750 750H748V900H750H752V750H750ZM750 900V898H600V900V902H750V900Z" fill="#020202" fill-opacity="0.42" mask="url(#path-139-inside-70_13_69)"/>
<mask id="path-141-inside-71_13_69" fill="white">
<path d="M750 750H900V900H750V750Z"/>
</mask>
<path d="M900 900V902H902V900H900ZM900 750H898V900H900H902V750H900ZM900 900V898H750V900V902H900V900Z" fill="#020202" fill-opacity="0.42" mask="url(#path-141-inside-71_13_69)"/>
<mask id="path-143-inside-72_13_69" fill="white">
<path d="M900 750H1050V900H900V750Z"/>
</mask>
<path d="M1050 900V902H1052V900H1050ZM1050 750H1048V900H1050H1052V750H1050ZM1050 900V898H900V900V902H1050V900Z" fill="#020202" fill-opacity="0.42" mask="url(#path-143-inside-72_13_69)"/>
<mask id="path-145-inside-73_13_69" fill="white">
<path d="M1050 750H1200V900H1050V750Z"/>
</mask>
<path d="M1200 900V902H1202V900H1200ZM1200 750H1198V900H1200H1202V750H1200ZM1200 900V898H1050V900V902H1200V900Z" fill="#020202" fill-opacity="0.42" mask="url(#path-145-inside-73_13_69)"/>
<mask id="path-147-inside-74_13_69" fill="white">
<path d="M1200 750H1350V900H1200V750Z"/>
</mask>
<path d="M1350 900V902H1352V900H1350ZM1350 750H1348V900H1350H1352V750H1350ZM1350 900V898H1200V900V902H1350V900Z" fill="#020202" fill-opacity="0.42" mask="url(#path-147-inside-74_13_69)"/>
<mask id="path-149-inside-75_13_69" fill="white">
<path d="M1350 750H1500V900H1350V750Z"/>
</mask>
<path d="M1500 900V902H1502V900H1500ZM1500 750H1498V900H1500H1502V750H1500ZM1500 900V898H1350V900V902H1500V900Z" fill="#020202" fill-opacity="0.42" mask="url(#path-149-inside-75_13_69)"/>
<mask id="path-151-inside-76_13_69" fill="white">
<path d="M1500 750H1650V900H1500V750Z"/>
</mask>
<path d="M1650 900V902H1652V900H1650ZM1650 750H1648V900H1650H1652V750H1650ZM1650 900V898H1500V900V902H1650V900Z" fill="#020202" fill-opacity="0.42" mask="url(#path-151-inside-76_13_69)"/>
<mask id="path-153-inside-77_13_69" fill="white">
<path d="M1650 750H1800V900H1650V750Z"/>
</mask>
<path d="M1800 900V902H1802V900H1800ZM1800 750H1798V900H1800H1802V750H1800ZM1800 900V898H1650V900V902H1800V900Z" fill="#020202" fill-opacity="0.42" mask="url(#path-153-inside-77_13_69)"/>
<mask id="path-155-inside-78_13_69" fill="white">
<path d="M1800 750H1950V900H1800V750Z"/>
</mask>
<path d="M1950 900V902H1952V900H1950ZM1950 750H1948V900H1950H1952V750H1950ZM1950 900V898H1800V900V902H1950V900Z" fill="#020202" fill-opacity="0.42" mask="url(#path-155-inside-78_13_69)"/>
<mask id="path-157-inside-79_13_69" fill="white">
<path d="M0 900H150V1050H0V900Z"/>
</mask>
<path d="M150 1050V1052H152V1050H150ZM150 900H148V1050H150H152V900H150ZM150 1050V1048H0V1050V1052H150V1050Z" fill="#020202" fill-opacity="0.42" mask="url(#path-157-inside-79_13_69)"/>
<mask id="path-159-inside-80_13_69" fill="white">
<path d="M150 900H300V1050H150V900Z"/>
</mask>
<path d="M300 1050V1052H302V1050H300ZM300 900H298V1050H300H302V900H300ZM300 1050V1048H150V1050V1052H300V1050Z" fill="#020202" fill-opacity="0.42" mask="url(#path-159-inside-80_13_69)"/>
<mask id="path-161-inside-81_13_69" fill="white">
<path d="M300 900H450V1050H300V900Z"/>
</mask>
<path d="M450 1050V1052H452V1050H450ZM450 900H448V1050H450H452V900H450ZM450 1050V1048H300V1050V1052H450V1050Z" fill="#020202" fill-opacity="0.42" mask="url(#path-161-inside-81_13_69)"/>
<mask id="path-163-inside-82_13_69" fill="white">
<path d="M450 900H600V1050H450V900Z"/>
</mask>
<path d="M600 1050V1052H602V1050H600ZM600 900H598V1050H600H602V900H600ZM600 1050V1048H450V1050V1052H600V1050Z" fill="#020202" fill-opacity="0.42" mask="url(#path-163-inside-82_13_69)"/>
<mask id="path-165-inside-83_13_69" fill="white">
<path d="M600 900H750V1050H600V900Z"/>
</mask>
<path d="M750 1050V1052H752V1050H750ZM750 900H748V1050H750H752V900H750ZM750 1050V1048H600V1050V1052H750V1050Z" fill="#020202" fill-opacity="0.42" mask="url(#path-165-inside-83_13_69)"/>
<mask id="path-167-inside-84_13_69" fill="white">
<path d="M750 900H900V1050H750V900Z"/>
</mask>
<path d="M900 1050V1052H902V1050H900ZM900 900H898V1050H900H902V900H900ZM900 1050V1048H750V1050V1052H900V1050Z" fill="#020202" fill-opacity="0.42" mask="url(#path-167-inside-84_13_69)"/>
<mask id="path-169-inside-85_13_69" fill="white">
<path d="M900 900H1050V1050H900V900Z"/>
</mask>
<path d="M1050 1050V1052H1052V1050H1050ZM1050 900H1048V1050H1050H1052V900H1050ZM1050 1050V1048H900V1050V1052H1050V1050Z" fill="#020202" fill-opacity="0.42" mask="url(#path-169-inside-85_13_69)"/>
<mask id="path-171-inside-86_13_69" fill="white">
<path d="M1050 900H1200V1050H1050V900Z"/>
</mask>
<path d="M1200 1050V1052H1202V1050H1200ZM1200 900H1198V1050H1200H1202V900H1200ZM1200 1050V1048H1050V1050V1052H1200V1050Z" fill="#020202" fill-opacity="0.42" mask="url(#path-171-inside-86_13_69)"/>
<mask id="path-173-inside-87_13_69" fill="white">
<path d="M1200 900H1350V1050H1200V900Z"/>
</mask>
<path d="M1350 1050V1052H1352V1050H1350ZM1350 900H1348V1050H1350H1352V900H1350ZM1350 1050V1048H1200V1050V1052H1350V1050Z" fill="#020202" fill-opacity="0.42" mask="url(#path-173-inside-87_13_69)"/>
<mask id="path-175-inside-88_13_69" fill="white">
<path d="M1350 900H1500V1050H1350V900Z"/>
</mask>
<path d="M1500 1050V1052H1502V1050H1500ZM1500 900H1498V1050H1500H1502V900H1500ZM1500 1050V1048H1350V1050V1052H1500V1050Z" fill="#020202" fill-opacity="0.42" mask="url(#path-175-inside-88_13_69)"/>
<mask id="path-177-inside-89_13_69" fill="white">
<path d="M1500 900H1650V1050H1500V900Z"/>
</mask>
<path d="M1650 1050V1052H1652V1050H1650ZM1650 900H1648V1050H1650H1652V900H1650ZM1650 1050V1048H1500V1050V1052H1650V1050Z" fill="#020202" fill-opacity="0.42" mask="url(#path-177-inside-89_13_69)"/>
<mask id="path-179-inside-90_13_69" fill="white">
<path d="M1650 900H1800V1050H1650V900Z"/>
</mask>
<path d="M1800 1050V1052H1802V1050H1800ZM1800 900H1798V1050H1800H1802V900H1800ZM1800 1050V1048H1650V1050V1052H1800V1050Z" fill="#020202" fill-opacity="0.42" mask="url(#path-179-inside-90_13_69)"/>
<mask id="path-181-inside-91_13_69" fill="white">
<path d="M1800 900H1950V1050H1800V900Z"/>
</mask>
<path d="M1950 1050V1052H1952V1050H1950ZM1950 900H1948V1050H1950H1952V900H1950ZM1950 1050V1048H1800V1050V1052H1950V1050Z" fill="#020202" fill-opacity="0.42" mask="url(#path-181-inside-91_13_69)"/>
</g>
<defs>
<clipPath id="clip0_13_69">
<rect width="1920" height="1050" fill="white"/>
</clipPath>
</defs>
</svg>
