<svg width="539" height="30" viewBox="0 0 539 30" fill="none" xmlns="http://www.w3.org/2000/svg">
<path d="M57.196 29.9426H26V6.86646e-05H37.42C32.7396 16.4247 40.4659 25.0837 57.196 23.5363V29.9426Z" fill="#E3E9E6"/>
<path d="M49.6755 29.9426H80.8715V6.86646e-05H69.4515C74.1319 16.4247 66.4056 25.0837 49.6755 23.5363V29.9426Z" fill="#E3E9E6"/>
<path d="M111.646 30.0078H80.4498V0.0652542H91.8698C87.1894 16.4899 94.9157 25.1488 111.646 23.6015V30.0078Z" fill="#E3E9E6"/>
<path d="M104.125 30.0078H135.321V0.0652542H123.901C128.582 16.4899 120.855 25.1488 104.125 23.6015V30.0078Z" fill="#E3E9E6"/>
<path d="M165.196 29.9426H134V6.86646e-05H145.42C140.74 16.4247 148.466 25.0837 165.196 23.5363V29.9426Z" fill="#E3E9E6"/>
<path d="M157.675 29.9426H188.871V6.86646e-05H177.452C182.132 16.4247 174.406 25.0837 157.675 23.5363V29.9426Z" fill="#E3E9E6"/>
<path d="M219.196 29.9426H188V6.86646e-05H199.42C194.74 16.4247 202.466 25.0837 219.196 23.5363V29.9426Z" fill="#E3E9E6"/>
<path d="M211.675 29.9426H242.871V6.86646e-05H231.452C236.132 16.4247 228.406 25.0837 211.675 23.5363V29.9426Z" fill="#E3E9E6"/>
<path d="M273.196 29.9426H242V6.86646e-05H253.42C248.74 16.4247 256.466 25.0837 273.196 23.5363V29.9426Z" fill="#E3E9E6"/>
<path d="M265.675 29.9426H296.871V6.86646e-05H285.452C290.132 16.4247 282.406 25.0837 265.675 23.5363V29.9426Z" fill="#E3E9E6"/>
<path d="M327.196 29.9426H296V6.86646e-05H307.42C302.74 16.4247 310.466 25.0837 327.196 23.5363V29.9426Z" fill="#E3E9E6"/>
<path d="M319.675 29.9426H350.871V6.86646e-05H339.452C344.132 16.4247 336.406 25.0837 319.675 23.5363V29.9426Z" fill="#E3E9E6"/>
<path d="M381.196 29.9426H350V6.86646e-05H361.42C356.74 16.4247 364.466 25.0837 381.196 23.5363V29.9426Z" fill="#E3E9E6"/>
<path d="M373.675 29.9426H404.871V6.86646e-05H393.452C398.132 16.4247 390.406 25.0837 373.675 23.5363V29.9426Z" fill="#E3E9E6"/>
<path d="M435.196 29.9426H404V6.86646e-05H415.42C410.74 16.4247 418.466 25.0837 435.196 23.5363V29.9426Z" fill="#E3E9E6"/>
<path d="M427.675 29.9426H458.871V6.86646e-05H447.452C452.132 16.4247 444.406 25.0837 427.675 23.5363V29.9426Z" fill="#E3E9E6"/>
<path d="M489.196 29.9426H458V6.86646e-05H469.42C464.74 16.4247 472.466 25.0837 489.196 23.5363V29.9426Z" fill="#E3E9E6"/>
<path d="M481.675 29.9426H512.871V6.86646e-05H501.452C506.132 16.4247 498.406 25.0837 481.675 23.5363V29.9426Z" fill="#E3E9E6"/>
<rect width="26.5784" height="30.0078" transform="matrix(1 0 0 -1 0 30.0078)" fill="#E3E9E6"/>
<rect width="26.5784" height="30.0078" transform="matrix(1 0 0 -1 512 30.0078)" fill="#E3E9E6"/>
</svg>
