<svg width="547" height="30" viewBox="0 0 547 30" fill="none" xmlns="http://www.w3.org/2000/svg">
<path d="M57.7743 30.0078H26.5784V0.0652542H37.9983C33.3179 16.4899 41.0443 25.1488 57.7743 23.6015V30.0078Z" fill="#E3E9E6"/>
<path d="M50.2539 30.0078H81.4498V0.0652542H70.0299C74.7103 16.4899 66.9839 25.1488 50.2539 23.6015V30.0078Z" fill="#E3E9E6"/>
<path d="M112.646 30.0078H81.4498V0.0652542H92.8698C88.1894 16.4899 95.9157 25.1488 112.646 23.6015V30.0078Z" fill="#E3E9E6"/>
<path d="M105.125 30.0078H136.321V0.0652542H124.901C129.582 16.4899 121.855 25.1488 105.125 23.6015V30.0078Z" fill="#E3E9E6"/>
<path d="M167.517 30.0078H136.321V0.0652542H147.741C143.061 16.4899 150.787 25.1488 167.517 23.6015V30.0078Z" fill="#E3E9E6"/>
<path d="M159.997 30.0078H191.193V0.0652542H179.773C184.453 16.4899 176.727 25.1488 159.997 23.6015V30.0078Z" fill="#E3E9E6"/>
<path d="M222.389 30.0078H191.193V0.0652542H202.613C197.932 16.4899 205.659 25.1488 222.389 23.6015V30.0078Z" fill="#E3E9E6"/>
<path d="M214.868 30.0078H246.064V0.0652542H234.644C239.325 16.4899 231.598 25.1488 214.868 23.6015V30.0078Z" fill="#E3E9E6"/>
<path d="M277.26 30.0078H246.064V0.0652542H257.484C252.804 16.4899 260.53 25.1488 277.26 23.6015V30.0078Z" fill="#E3E9E6"/>
<path d="M269.74 30.0078H300.936V0.0652542H289.516C294.196 16.4899 286.47 25.1488 269.74 23.6015V30.0078Z" fill="#E3E9E6"/>
<path d="M332.132 30.0078H300.936V0.0652542H312.356C307.675 16.4899 315.402 25.1488 332.132 23.6015V30.0078Z" fill="#E3E9E6"/>
<path d="M324.611 30.0078H355.807V0.0652542H344.387C349.068 16.4899 341.341 25.1488 324.611 23.6015V30.0078Z" fill="#E3E9E6"/>
<path d="M387.003 30.0078H355.807V0.0652542H367.227C362.547 16.4899 370.273 25.1488 387.003 23.6015V30.0078Z" fill="#E3E9E6"/>
<path d="M379.483 30.0078H410.679V0.0652542H399.259C403.939 16.4899 396.213 25.1488 379.483 23.6015V30.0078Z" fill="#E3E9E6"/>
<path d="M441.875 30.0078H410.679V0.0652542H422.099C417.418 16.4899 425.145 25.1488 441.875 23.6015V30.0078Z" fill="#E3E9E6"/>
<path d="M434.354 30.0078H465.55V0.0652542H454.13C458.811 16.4899 451.084 25.1488 434.354 23.6015V30.0078Z" fill="#E3E9E6"/>
<path d="M496.746 30.0078H465.55V0.0652542H476.97C472.29 16.4899 480.016 25.1488 496.746 23.6015V30.0078Z" fill="#E3E9E6"/>
<path d="M489.226 30.0078H520.422V0.0652542H509.002C513.682 16.4899 505.956 25.1488 489.226 23.6015V30.0078Z" fill="#E3E9E6"/>
<rect width="26.5784" height="30.0078" transform="matrix(1 0 0 -1 0 30.0078)" fill="#E3E9E6"/>
<rect width="26.5784" height="30.0078" transform="matrix(1 0 0 -1 520.422 30.0078)" fill="#E3E9E6"/>
</svg>
