<svg width="99" height="58" viewBox="0 0 99 58" fill="none" xmlns="http://www.w3.org/2000/svg">
<path d="M10 1H89C93.9706 1 98 5.02944 98 10V57H1V10C1 5.18468 4.78166 1.25264 9.53711 1.01172L10 1Z" fill="white"/>
<path d="M10 1H89C93.9706 1 98 5.02944 98 10V57H1V10C1 5.18468 4.78166 1.25264 9.53711 1.01172L10 1Z" stroke="black" stroke-width="2"/>
<path d="M59.8352 17.7537C60.1264 17.7537 60.3319 17.8222 60.4518 17.9593C60.5802 18.0877 60.6444 18.3103 60.6444 18.6272C60.6444 18.944 60.5802 19.1709 60.4518 19.3079C60.3319 19.4364 60.1264 19.5006 59.8352 19.5006H58.8462L54.2351 32.4477C54.1238 32.7474 53.9568 32.9615 53.7342 33.0899C53.5201 33.2184 53.2247 33.2826 52.8479 33.2826C52.4797 33.2826 52.1843 33.2141 51.9616 33.0771C51.7476 32.9486 51.5892 32.7388 51.4864 32.4477L46.9138 19.5006H45.9376C45.6465 19.5006 45.4367 19.4364 45.3083 19.3079C45.1884 19.1709 45.1284 18.944 45.1284 18.6272C45.1284 18.3103 45.1884 18.0877 45.3083 17.9593C45.4367 17.8222 45.6465 17.7537 45.9376 17.7537H50.7414C51.0326 17.7537 51.2381 17.8222 51.358 17.9593C51.4864 18.0877 51.5506 18.3103 51.5506 18.6272C51.5506 18.944 51.4864 19.1709 51.358 19.3079C51.2381 19.4364 51.0326 19.5006 50.7414 19.5006H48.9304L52.8607 30.855L56.8297 19.5006H55.5452C55.2541 19.5006 55.0443 19.4364 54.9158 19.3079C54.796 19.1709 54.736 18.944 54.736 18.6272C54.736 18.3103 54.796 18.0877 54.9158 17.9593C55.0443 17.8222 55.2541 17.7537 55.5452 17.7537H59.8352ZM72.9108 17.7537C73.2019 17.7537 73.4074 17.8222 73.5273 17.9593C73.6558 18.0877 73.72 18.3103 73.72 18.6272C73.72 18.944 73.6558 19.1709 73.5273 19.3079C73.4074 19.4364 73.2019 19.5006 72.9108 19.5006H69.6226V31.2532H73.1677C73.4588 31.2532 73.6643 31.3217 73.7842 31.4587C73.9127 31.5871 73.9769 31.8098 73.9769 32.1266C73.9769 32.4434 73.9127 32.6703 73.7842 32.8073C73.6643 32.9358 73.4588 33 73.1677 33H64.1509C63.8598 33 63.65 32.9358 63.5216 32.8073C63.4017 32.6703 63.3417 32.4434 63.3417 32.1266C63.3417 31.8098 63.4017 31.5871 63.5216 31.4587C63.65 31.3217 63.8598 31.2532 64.1509 31.2532H67.696V19.5006H64.4078C64.1167 19.5006 63.9069 19.4364 63.7785 19.3079C63.6586 19.1709 63.5986 18.944 63.5986 18.6272C63.5986 18.3103 63.6586 18.0877 63.7785 17.9593C63.9069 17.8222 64.1167 17.7537 64.4078 17.7537H72.9108ZM89.7112 27.4769C90.0623 27.4769 90.3106 27.5411 90.4562 27.6696C90.6018 27.798 90.6745 28.0121 90.6745 28.3118V32.1266C90.6745 32.4434 90.6103 32.6703 90.4819 32.8073C90.362 32.9358 90.1565 33 89.8654 33H78.3825C78.0914 33 77.8816 32.9358 77.7531 32.8073C77.6332 32.6703 77.5733 32.4434 77.5733 32.1266C77.5733 31.8098 77.6332 31.5871 77.7531 31.4587C77.8816 31.3217 78.0914 31.2532 78.3825 31.2532H79.6926V19.5006H78.3825C78.0914 19.5006 77.8816 19.4364 77.7531 19.3079C77.6332 19.1709 77.5733 18.944 77.5733 18.6272C77.5733 18.3103 77.6332 18.0877 77.7531 17.9593C77.8816 17.8222 78.0914 17.7537 78.3825 17.7537H89.6085C89.8996 17.7537 90.1051 17.8222 90.225 17.9593C90.3534 18.0877 90.4177 18.3103 90.4177 18.6272V21.8896C90.4177 22.1893 90.3449 22.4034 90.1993 22.5318C90.0537 22.6603 89.8054 22.7245 89.4543 22.7245C89.1033 22.7245 88.8549 22.6603 88.7094 22.5318C88.5638 22.4034 88.491 22.1893 88.491 21.8896V19.5006H81.6193V24.2658H84.9331V23.097C84.9331 22.7973 84.9973 22.5832 85.1258 22.4548C85.2628 22.3263 85.5026 22.2621 85.8451 22.2621C86.1876 22.2621 86.4231 22.3263 86.5515 22.4548C86.6885 22.5832 86.757 22.7973 86.757 23.097V27.1815C86.757 27.4812 86.6885 27.6953 86.5515 27.8237C86.4231 27.9522 86.1876 28.0164 85.8451 28.0164C85.5026 28.0164 85.2628 27.9522 85.1258 27.8237C84.9973 27.6953 84.9331 27.4812 84.9331 27.1815V26.0127H81.6193V31.2532H88.7479V28.3118C88.7479 28.0121 88.8207 27.798 88.9662 27.6696C89.1118 27.5411 89.3601 27.4769 89.7112 27.4769Z" fill="black"/>
<path d="M19.193 17.7537C19.4842 17.7537 19.6897 17.8222 19.8095 17.9593C19.938 18.0877 20.0022 18.3103 20.0022 18.6272C20.0022 18.944 19.938 19.1709 19.8095 19.3079C19.6897 19.4364 19.4842 19.5006 19.193 19.5006H18.5508L18.8848 31.2532H19.5783C19.8695 31.2532 20.075 31.3217 20.1949 31.4587C20.3233 31.5871 20.3875 31.8098 20.3875 32.1266C20.3875 32.4434 20.3233 32.6703 20.1949 32.8073C20.075 32.9358 19.8695 33 19.5783 33H15.5452C15.2541 33 15.0443 32.9358 14.9158 32.8073C14.796 32.6703 14.736 32.4434 14.736 32.1266C14.736 31.8098 14.796 31.5871 14.9158 31.4587C15.0443 31.3217 15.2541 31.2532 15.5452 31.2532H16.9709L16.6884 20.7336L14.0681 28.0549C13.9568 28.3546 13.8069 28.5687 13.6186 28.6971C13.4387 28.8256 13.1947 28.8898 12.8864 28.8898C12.5782 28.8898 12.3298 28.8256 12.1415 28.6971C11.9616 28.5687 11.8161 28.3546 11.7048 28.0549L9.07166 20.7336L8.80193 31.2532H10.2277C10.5188 31.2532 10.7243 31.3217 10.8442 31.4587C10.9726 31.5871 11.0368 31.8098 11.0368 32.1266C11.0368 32.4434 10.9726 32.6703 10.8442 32.8073C10.7243 32.9358 10.5188 33 10.2277 33H6.19453C5.90339 33 5.6936 32.9358 5.56515 32.8073C5.44527 32.6703 5.38533 32.4434 5.38533 32.1266C5.38533 31.8098 5.44527 31.5871 5.56515 31.4587C5.6936 31.3217 5.90339 31.2532 6.19453 31.2532H6.88812L7.20923 19.5006H6.57986C6.28872 19.5006 6.07893 19.4364 5.95048 19.3079C5.8306 19.1709 5.77066 18.944 5.77066 18.6272C5.77066 18.3103 5.8306 18.0877 5.95048 17.9593C6.07893 17.8222 6.28872 17.7537 6.57986 17.7537H9.29002C9.49553 17.7537 9.65822 17.788 9.7781 17.8565C9.89798 17.925 9.98361 18.032 10.035 18.1776L12.8864 25.9998L15.725 18.1776C15.8192 17.895 16.0718 17.7537 16.4829 17.7537H19.193Z" fill="black"/>
<path d="M30.5 19H36.5C40.0899 19 43 21.9101 43 25.5C43 29.0899 40.0899 32 36.5 32H30.5C26.9101 32 24 29.0899 24 25.5C24 21.9101 26.9101 19 30.5 19Z" stroke="black" stroke-width="2"/>
<path d="M15.1727 36.6889C15.4511 36.6889 15.6479 36.7398 15.7633 36.8416C15.8787 36.9434 15.9365 37.1131 15.9365 37.3507V40.7111C15.9365 40.9487 15.8787 41.1184 15.7633 41.2203C15.6479 41.3221 15.4511 41.373 15.1727 41.373C14.8944 41.373 14.6975 41.3221 14.5821 41.2203C14.4667 41.1184 14.409 40.9487 14.409 40.7111C14.409 40.2495 14.3038 39.8286 14.0933 39.4484C13.8897 39.0683 13.574 38.7662 13.1463 38.5421C12.7187 38.3113 12.1891 38.1959 11.5578 38.1959C10.8246 38.1959 10.1729 38.3894 9.60268 38.7764C9.03922 39.1633 8.59796 39.7166 8.2789 40.4362C7.96662 41.1558 7.81049 41.9975 7.81049 42.9615C7.81049 43.9255 7.95983 44.7673 8.25853 45.4869C8.55723 46.1997 8.98152 46.7496 9.5314 47.1365C10.0813 47.5235 10.7228 47.717 11.456 47.717C12.128 47.717 12.7696 47.6185 13.3805 47.4216C13.9915 47.2248 14.5414 46.9397 15.0302 46.5663C15.1456 46.4712 15.2712 46.4237 15.4069 46.4237C15.6106 46.4237 15.7905 46.5561 15.9466 46.8209C16.0688 47.0245 16.1299 47.2044 16.1299 47.3606C16.1299 47.5642 16.0247 47.7407 15.8143 47.8901C15.1829 48.3313 14.4939 48.664 13.7471 48.888C13.0072 49.112 12.2434 49.224 11.456 49.224C10.3969 49.224 9.4703 48.9661 8.67603 48.4501C7.88855 47.9274 7.27758 47.1942 6.84311 46.2506C6.41543 45.307 6.20158 44.2106 6.20158 42.9615C6.20158 41.7192 6.42221 40.6262 6.86347 39.6826C7.30473 38.7322 7.9225 37.9957 8.71676 37.4729C9.51782 36.9502 10.4309 36.6889 11.456 36.6889C12.0941 36.6889 12.6609 36.7975 13.1565 37.0147C13.6521 37.2319 14.0696 37.5408 14.409 37.9414V37.3507C14.409 37.1131 14.4667 36.9434 14.5821 36.8416C14.6975 36.7398 14.8944 36.6889 15.1727 36.6889ZM24.0217 36.9129C24.2932 36.9129 24.5105 36.9672 24.6734 37.0758C24.8431 37.1776 24.9687 37.344 25.0502 37.5748L28.6447 47.6151H29.2659C29.4967 47.6151 29.6596 47.6694 29.7547 47.778C29.8565 47.8799 29.9074 48.0564 29.9074 48.3076C29.9074 48.5587 29.8565 48.7386 29.7547 48.8473C29.6596 48.9491 29.4967 49 29.2659 49H25.6611C25.4303 49 25.264 48.9491 25.1622 48.8473C25.0671 48.7386 25.0196 48.5587 25.0196 48.3076C25.0196 48.0564 25.0671 47.8799 25.1622 47.778C25.264 47.6694 25.4303 47.6151 25.6611 47.6151H27.0358L26.2008 45.1916H21.2621L20.4169 47.6151H21.6491C21.8799 47.6151 22.0428 47.6694 22.1378 47.778C22.2397 47.8799 22.2906 48.0564 22.2906 48.3076C22.2906 48.5587 22.2397 48.7386 22.1378 48.8473C22.0428 48.9491 21.8799 49 21.6491 49H18.248C18.0172 49 17.8508 48.9491 17.749 48.8473C17.654 48.7386 17.6065 48.5587 17.6065 48.3076C17.6065 48.0564 17.654 47.8799 17.749 47.778C17.8508 47.6694 18.0172 47.6151 18.248 47.6151H18.8182L22.1888 38.2978H20.2846C20.0537 38.2978 19.8874 38.2468 19.7856 38.145C19.6906 38.0364 19.643 37.8565 19.643 37.6053C19.643 37.3541 19.6906 37.1776 19.7856 37.0758C19.8874 36.9672 20.0537 36.9129 20.2846 36.9129H24.0217ZM23.6449 38.2978L21.7407 43.8067H25.7324L23.8384 38.2978H23.6449ZM40.63 36.9129C40.8608 36.9129 41.0238 36.9672 41.1188 37.0758C41.2206 37.1776 41.2716 37.3541 41.2716 37.6053V41.4443C41.2716 41.6819 41.2138 41.8516 41.0984 41.9534C40.983 42.0553 40.7862 42.1062 40.5078 42.1062C40.2295 42.1062 40.0326 42.0553 39.9172 41.9534C39.8018 41.8516 39.7441 41.6819 39.7441 41.4443V38.2978H37.0253V47.6151H39.4284C39.6593 47.6151 39.8222 47.6694 39.9172 47.778C40.0191 47.8799 40.07 48.0564 40.07 48.3076C40.07 48.5587 40.0191 48.7386 39.9172 48.8473C39.8222 48.9491 39.6593 49 39.4284 49H33.0947C32.8639 49 32.6975 48.9491 32.5957 48.8473C32.5007 48.7386 32.4531 48.5587 32.4531 48.3076C32.4531 48.0564 32.5007 47.8799 32.5957 47.778C32.6975 47.6694 32.8639 47.6151 33.0947 47.6151H35.4978V38.2978H32.779V41.4443C32.779 41.6819 32.7213 41.8516 32.6059 41.9534C32.4905 42.0553 32.2936 42.1062 32.0153 42.1062C31.7369 42.1062 31.5401 42.0553 31.4247 41.9534C31.3093 41.8516 31.2516 41.6819 31.2516 41.4443V37.6053C31.2516 37.3541 31.2991 37.1776 31.3941 37.0758C31.496 36.9672 31.6623 36.9129 31.8931 36.9129H40.63ZM49.0309 36.9129C49.3025 36.9129 49.5197 36.9672 49.6826 37.0758C49.8524 37.1776 49.9779 37.344 50.0594 37.5748L53.654 47.6151H54.2751C54.5059 47.6151 54.6689 47.6694 54.7639 47.778C54.8657 47.8799 54.9167 48.0564 54.9167 48.3076C54.9167 48.5587 54.8657 48.7386 54.7639 48.8473C54.6689 48.9491 54.5059 49 54.2751 49H50.6704C50.4396 49 50.2732 48.9491 50.1714 48.8473C50.0764 48.7386 50.0289 48.5587 50.0289 48.3076C50.0289 48.0564 50.0764 47.8799 50.1714 47.778C50.2732 47.6694 50.4396 47.6151 50.6704 47.6151H52.0451L51.2101 45.1916H46.2714L45.4262 47.6151H46.6583C46.8891 47.6151 47.0521 47.6694 47.1471 47.778C47.2489 47.8799 47.2998 48.0564 47.2998 48.3076C47.2998 48.5587 47.2489 48.7386 47.1471 48.8473C47.0521 48.9491 46.8891 49 46.6583 49H43.2572C43.0264 49 42.8601 48.9491 42.7583 48.8473C42.6632 48.7386 42.6157 48.5587 42.6157 48.3076C42.6157 48.0564 42.6632 47.8799 42.7583 47.778C42.8601 47.6694 43.0264 47.6151 43.2572 47.6151H43.8275L47.198 38.2978H45.2938C45.063 38.2978 44.8967 38.2468 44.7948 38.145C44.6998 38.0364 44.6523 37.8565 44.6523 37.6053C44.6523 37.3541 44.6998 37.1776 44.7948 37.0758C44.8967 36.9672 45.063 36.9129 45.2938 36.9129H49.0309ZM48.6542 38.2978L46.75 43.8067H50.7417L48.8476 38.2978H48.6542ZM62.116 36.9129C62.3468 36.9129 62.5097 36.9672 62.6048 37.0758C62.7066 37.1776 62.7575 37.3541 62.7575 37.6053C62.7575 37.8565 62.7066 38.0364 62.6048 38.145C62.5097 38.2468 62.3468 38.2978 62.116 38.2978H59.6517V47.6151H64.6923V44.2649C64.6923 44.0273 64.75 43.8576 64.8654 43.7558C64.9808 43.654 65.1776 43.6031 65.456 43.6031C65.7343 43.6031 65.9312 43.654 66.0466 43.7558C66.162 43.8576 66.2197 44.0273 66.2197 44.2649V48.3076C66.2197 48.5587 66.1688 48.7386 66.067 48.8473C65.9719 48.9491 65.809 49 65.5782 49H56.4746C56.2438 49 56.0775 48.9491 55.9757 48.8473C55.8806 48.7386 55.8331 48.5587 55.8331 48.3076C55.8331 48.0564 55.8806 47.8799 55.9757 47.778C56.0775 47.6694 56.2438 47.6151 56.4746 47.6151H58.1243V38.2978H56.4746C56.2438 38.2978 56.0775 38.2468 55.9757 38.145C55.8806 38.0364 55.8331 37.8565 55.8331 37.6053C55.8331 37.3541 55.8806 37.1776 55.9757 37.0758C56.0775 36.9672 56.2438 36.9129 56.4746 36.9129H62.116ZM73.7754 36.6889C74.8344 36.6889 75.7679 36.9502 76.5757 37.4729C77.3904 37.9957 78.0183 38.7322 78.4596 39.6826C78.9076 40.6262 79.1316 41.7192 79.1316 42.9615C79.1316 44.2038 78.9076 45.3002 78.4596 46.2506C78.0183 47.1942 77.3904 47.9274 76.5757 48.4501C75.7679 48.9661 74.8344 49.224 73.7754 49.224C72.7164 49.224 71.7796 48.9661 70.9649 48.4501C70.1571 47.9274 69.5291 47.1942 69.0811 46.2506C68.6398 45.3002 68.4192 44.2038 68.4192 42.9615C68.4192 41.7192 68.6398 40.6262 69.0811 39.6826C69.5291 38.7322 70.1571 37.9957 70.9649 37.4729C71.7796 36.9502 72.7164 36.6889 73.7754 36.6889ZM73.7754 38.1959C73.0287 38.1959 72.3702 38.3894 71.7999 38.7764C71.2365 39.1633 70.7986 39.7166 70.4863 40.4362C70.1809 41.1558 70.0281 41.9975 70.0281 42.9615C70.0281 43.9255 70.1809 44.7673 70.4863 45.4869C70.7986 46.1997 71.2365 46.7496 71.7999 47.1365C72.3702 47.5235 73.0287 47.717 73.7754 47.717C74.5222 47.717 75.1773 47.5235 75.7407 47.1365C76.311 46.7496 76.7488 46.1997 77.0543 45.4869C77.3666 44.7673 77.5227 43.9255 77.5227 42.9615C77.5227 41.9975 77.3666 41.1558 77.0543 40.4362C76.7488 39.7166 76.311 39.1633 75.7407 38.7764C75.1773 38.3894 74.5222 38.1959 73.7754 38.1959ZM90.0783 36.6889C90.3566 36.6889 90.5535 36.7398 90.6689 36.8416C90.7843 36.9434 90.842 37.1131 90.842 37.3507V40.3038C90.842 40.5414 90.7843 40.7111 90.6689 40.8129C90.5535 40.9148 90.3566 40.9657 90.0783 40.9657C89.7999 40.9657 89.6031 40.9148 89.4877 40.8129C89.3723 40.7111 89.3146 40.5414 89.3146 40.3038C89.3146 39.8965 89.2025 39.5333 88.9785 39.2142C88.7613 38.8952 88.4388 38.6474 88.0111 38.4709C87.5835 38.2876 87.0743 38.1959 86.4837 38.1959C85.7302 38.1959 85.0615 38.3894 84.4777 38.7764C83.9006 39.1633 83.4492 39.7166 83.1233 40.4362C82.7975 41.1558 82.6346 41.9975 82.6346 42.9615C82.6346 43.9255 82.7873 44.7673 83.0928 45.4869C83.4051 46.1997 83.8429 46.7496 84.4064 47.1365C84.9766 47.5235 85.6351 47.717 86.3819 47.717C87.5699 47.717 88.5848 47.5235 89.4266 47.1365V44.825H86.9114C86.6806 44.825 86.5143 44.7741 86.4124 44.6723C86.3174 44.5636 86.2699 44.3837 86.2699 44.1326C86.2699 43.8814 86.3174 43.7049 86.4124 43.6031C86.5143 43.4944 86.6806 43.4401 86.9114 43.4401H91.2799C91.5107 43.4401 91.6736 43.4944 91.7686 43.6031C91.8705 43.7049 91.9214 43.8814 91.9214 44.1326C91.9214 44.3837 91.8705 44.5636 91.7686 44.6723C91.6736 44.7741 91.5107 44.825 91.2799 44.825H90.954V47.5438C90.954 47.8765 90.8318 48.1107 90.5874 48.2465C90.0308 48.5655 89.3892 48.8099 88.6628 48.9796C87.9365 49.1426 87.1761 49.224 86.3819 49.224C85.3228 49.224 84.386 48.9661 83.5714 48.4501C82.7635 47.9274 82.1356 47.1942 81.6875 46.2506C81.2463 45.3002 81.0257 44.2038 81.0257 42.9615C81.0257 41.726 81.2531 40.633 81.7079 39.6826C82.1695 38.7322 82.8043 37.9957 83.6121 37.4729C84.4268 36.9502 85.35 36.6889 86.3819 36.6889C87.02 36.6889 87.5835 36.7907 88.0722 36.9943C88.5678 37.1912 88.9819 37.4763 89.3146 37.8497V37.3507C89.3146 37.1131 89.3723 36.9434 89.4877 36.8416C89.6031 36.7398 89.7999 36.6889 90.0783 36.6889Z" fill="black"/>
<path d="M12.1907 7.27568C12.3382 7.27568 12.4423 7.31039 12.5031 7.3798C12.5681 7.44488 12.6007 7.55767 12.6007 7.71819C12.6007 7.87871 12.5681 7.99367 12.5031 8.06308C12.4423 8.12816 12.3382 8.16069 12.1907 8.16069H11.8653L12.0345 14.115H12.3859C12.5334 14.115 12.6375 14.1497 12.6983 14.2191C12.7634 14.2842 12.7959 14.397 12.7959 14.5575C12.7959 14.718 12.7634 14.833 12.6983 14.9024C12.6375 14.9675 12.5334 15 12.3859 15H10.3426C10.1951 15 10.0888 14.9675 10.0237 14.9024C9.963 14.833 9.93263 14.718 9.93263 14.5575C9.93263 14.397 9.963 14.2842 10.0237 14.2191C10.0888 14.1497 10.1951 14.115 10.3426 14.115H11.0649L10.9218 8.78541L9.59424 12.4946C9.53785 12.6465 9.46193 12.7549 9.36648 12.82C9.27538 12.8851 9.15174 12.9176 8.99556 12.9176C8.83938 12.9176 8.71357 12.8851 8.61813 12.82C8.52703 12.7549 8.45327 12.6465 8.39688 12.4946L7.06285 8.78541L6.9262 14.115H7.64852C7.79602 14.115 7.90014 14.1497 7.96088 14.2191C8.02595 14.2842 8.05849 14.397 8.05849 14.5575C8.05849 14.718 8.02595 14.833 7.96088 14.9024C7.90014 14.9675 7.79602 15 7.64852 15H5.60519C5.45769 15 5.3514 14.9675 5.28633 14.9024C5.22559 14.833 5.19522 14.718 5.19522 14.5575C5.19522 14.397 5.22559 14.2842 5.28633 14.2191C5.3514 14.1497 5.45769 14.115 5.60519 14.115H5.95659L6.11928 8.16069H5.80041C5.65291 8.16069 5.54662 8.12816 5.48155 8.06308C5.42081 7.99367 5.39045 7.87871 5.39045 7.71819C5.39045 7.55767 5.42081 7.44488 5.48155 7.3798C5.54662 7.31039 5.65291 7.27568 5.80041 7.27568H7.17348C7.2776 7.27568 7.36003 7.29304 7.42076 7.32774C7.4815 7.36245 7.52488 7.41668 7.55091 7.49043L8.99556 11.4535L10.4337 7.49043C10.4814 7.34727 10.6094 7.27568 10.8176 7.27568H12.1907ZM20.1818 7.27568C20.3293 7.27568 20.4334 7.31039 20.4942 7.3798C20.5593 7.44488 20.5918 7.55767 20.5918 7.71819C20.5918 7.87871 20.5593 7.99367 20.4942 8.06308C20.4334 8.12816 20.3293 8.16069 20.1818 8.16069H19.7393L17.4747 11.7983V14.115H18.9454C19.0929 14.115 19.197 14.1497 19.2578 14.2191C19.3228 14.2842 19.3554 14.397 19.3554 14.5575C19.3554 14.718 19.3228 14.833 19.2578 14.9024C19.197 14.9675 19.0929 15 18.9454 15H15.0279C14.8804 15 14.7742 14.9675 14.7091 14.9024C14.6483 14.833 14.618 14.718 14.618 14.5575C14.618 14.397 14.6483 14.2842 14.7091 14.2191C14.7742 14.1497 14.8804 14.115 15.0279 14.115H16.4986V11.7983L14.2471 8.16069H13.7915C13.644 8.16069 13.5377 8.12816 13.4727 8.06308C13.4119 7.99367 13.3816 7.87871 13.3816 7.71819C13.3816 7.55767 13.4119 7.44488 13.4727 7.3798C13.5377 7.31039 13.644 7.27568 13.7915 7.27568H15.965C16.1125 7.27568 16.2166 7.31039 16.2774 7.3798C16.3424 7.44488 16.375 7.55767 16.375 7.71819C16.375 7.87871 16.3424 7.99367 16.2774 8.06308C16.2166 8.12816 16.1125 8.16069 15.965 8.16069H15.3598L16.9867 10.8222L18.6266 8.16069H18.2036C18.0561 8.16069 17.9498 8.12816 17.8847 8.06308C17.824 7.99367 17.7936 7.87871 17.7936 7.71819C17.7936 7.55767 17.824 7.44488 17.8847 7.3798C17.9498 7.31039 18.0561 7.27568 18.2036 7.27568H20.1818Z" fill="black"/>
</svg>
