<svg width="217" height="128" viewBox="0 0 217 128" fill="none" xmlns="http://www.w3.org/2000/svg">
<g clip-path="url(#clip0_26_58)">
<path d="M27.6546 5.31821H195.709C206.87 5.31821 215.918 14.3661 215.918 25.5273V126.573H7.44556V25.5273C7.44556 14.7152 15.9364 5.88691 26.6138 5.34522L27.6546 5.31821Z" fill="#0F0F0F"/>
<path d="M27.6546 5.31821H195.709C206.87 5.31821 215.918 14.3661 215.918 25.5273V126.573H7.44556V25.5273C7.44556 14.7152 15.9364 5.88691 26.6138 5.34522L27.6546 5.31821Z" stroke="#0F0F0F" stroke-width="2.12727"/>
<path d="M21.2728 1.06363H189.327C200.489 1.06363 209.536 10.1116 209.536 21.2727V122.318H1.06372V21.2727C1.06372 10.4606 9.55456 1.63233 20.232 1.09063L21.2728 1.06363Z" fill="#FFEDEC"/>
<path d="M21.2728 1.06363H189.327C200.489 1.06363 209.536 10.1116 209.536 21.2727V122.318H1.06372V21.2727C1.06372 10.4606 9.55456 1.63233 20.232 1.09063L21.2728 1.06363Z" stroke="#0F0F0F" stroke-width="2.12727"/>
<path d="M127.286 37.767C127.905 37.767 128.342 37.9127 128.598 38.2043C128.871 38.4775 129.007 38.951 129.007 39.6251C129.007 40.2991 128.871 40.7817 128.598 41.0732C128.342 41.3465 127.905 41.4831 127.286 41.4831H125.182L115.373 69.0251C115.136 69.6627 114.781 70.1181 114.307 70.3913C113.852 70.6646 113.224 70.8012 112.422 70.8012C111.639 70.8012 111.01 70.6555 110.537 70.364C110.081 70.0907 109.744 69.6444 109.526 69.0251L99.7985 41.4831H97.7219C97.1026 41.4831 96.6563 41.3465 96.3832 41.0732C96.1281 40.7817 96.0005 40.2991 96.0005 39.6251C96.0005 38.951 96.1281 38.4775 96.3832 38.2043C96.6563 37.9127 97.1026 37.767 97.7219 37.767H107.941C108.56 37.767 108.997 37.9127 109.253 38.2043C109.526 38.4775 109.662 38.951 109.662 39.6251C109.662 40.2991 109.526 40.7817 109.253 41.0732C108.997 41.3465 108.56 41.4831 107.941 41.4831H104.088L112.449 65.637L120.892 41.4831H118.16C117.541 41.4831 117.094 41.3465 116.821 41.0732C116.566 40.7817 116.438 40.2991 116.438 39.6251C116.438 38.951 116.566 38.4775 116.821 38.2043C117.094 37.9127 117.541 37.767 118.16 37.767H127.286ZM155.101 37.767C155.72 37.767 156.158 37.9127 156.413 38.2043C156.686 38.4775 156.823 38.951 156.823 39.6251C156.823 40.2991 156.686 40.7817 156.413 41.0732C156.158 41.3465 155.72 41.4831 155.101 41.4831H148.106V66.4841H155.648C156.267 66.4841 156.704 66.6298 156.959 66.9212C157.233 67.1944 157.369 67.6681 157.369 68.342C157.369 69.016 157.233 69.4986 156.959 69.7901C156.704 70.0634 156.267 70.2 155.648 70.2H136.467C135.847 70.2 135.401 70.0634 135.128 69.7901C134.873 69.4986 134.745 69.016 134.745 68.342C134.745 67.6681 134.873 67.1944 135.128 66.9212C135.401 66.6298 135.847 66.4841 136.467 66.4841H144.008V41.4831H137.013C136.394 41.4831 135.947 41.3465 135.674 41.0732C135.419 40.7817 135.292 40.2991 135.292 39.6251C135.292 38.951 135.419 38.4775 135.674 38.2043C135.947 37.9127 136.394 37.767 137.013 37.767H155.101ZM190.84 58.4509C191.587 58.4509 192.115 58.5874 192.425 58.8608C192.735 59.1339 192.889 59.5894 192.889 60.2269V68.342C192.889 69.016 192.753 69.4986 192.48 69.7901C192.225 70.0634 191.788 70.2 191.168 70.2H166.741C166.122 70.2 165.675 70.0634 165.402 69.7901C165.147 69.4986 165.02 69.016 165.02 68.342C165.02 67.6681 165.147 67.1944 165.402 66.9212C165.675 66.6298 166.122 66.4841 166.741 66.4841H169.528V41.4831H166.741C166.122 41.4831 165.675 41.3465 165.402 41.0732C165.147 40.7817 165.02 40.2991 165.02 39.6251C165.02 38.951 165.147 38.4775 165.402 38.2043C165.675 37.9127 166.122 37.767 166.741 37.767H190.622C191.241 37.767 191.678 37.9127 191.933 38.2043C192.206 38.4775 192.343 38.951 192.343 39.6251V46.5652C192.343 47.2027 192.188 47.6581 191.879 47.9313C191.569 48.2046 191.041 48.3412 190.294 48.3412C189.547 48.3412 189.019 48.2046 188.709 47.9313C188.399 47.6581 188.245 47.2027 188.245 46.5652V41.4831H173.627V51.62H180.676V49.1336C180.676 48.4961 180.813 48.0406 181.086 47.7675C181.377 47.4941 181.887 47.3576 182.616 47.3576C183.345 47.3576 183.846 47.4941 184.119 47.7675C184.41 48.0406 184.556 48.4961 184.556 49.1336V57.8225C184.556 58.46 184.41 58.9155 184.119 59.1886C183.846 59.462 183.345 59.5985 182.616 59.5985C181.887 59.5985 181.377 59.462 181.086 59.1886C180.813 58.9155 180.676 58.46 180.676 57.8225V55.3361H173.627V66.4841H188.791V60.2269C188.791 59.5894 188.946 59.1339 189.255 58.8608C189.565 58.5874 190.093 58.4509 190.84 58.4509Z" fill="#0F0F0F"/>
<path d="M40.829 37.767C41.4484 37.767 41.8856 37.9127 42.1404 38.2043C42.4138 38.4775 42.5504 38.951 42.5504 39.6251C42.5504 40.2991 42.4138 40.7817 42.1404 41.0732C41.8856 41.3465 41.4484 41.4831 40.829 41.4831H39.4628L40.1734 66.4841H41.6486C42.2681 66.4841 42.7052 66.6298 42.9603 66.9212C43.2334 67.1944 43.37 67.6681 43.37 68.342C43.37 69.016 43.2334 69.4986 42.9603 69.7901C42.7052 70.0634 42.2681 70.2 41.6486 70.2H33.0691C32.4499 70.2 32.0036 70.0634 31.7302 69.7901C31.4754 69.4986 31.3477 69.016 31.3477 68.342C31.3477 67.6681 31.4754 67.1944 31.7302 66.9212C32.0036 66.6298 32.4499 66.4841 33.0691 66.4841H36.102L35.501 44.106L29.9269 59.6804C29.6902 60.318 29.3713 60.7734 28.9707 61.0466C28.588 61.3199 28.069 61.4565 27.4131 61.4565C26.7575 61.4565 26.2291 61.3199 25.8285 61.0466C25.4458 60.7734 25.1363 60.318 24.8995 59.6804L19.2981 44.106L18.7243 66.4841H21.7573C22.3766 66.4841 22.8137 66.6298 23.0688 66.9212C23.3419 67.1944 23.4785 67.6681 23.4785 68.342C23.4785 69.016 23.3419 69.4986 23.0688 69.7901C22.8137 70.0634 22.3766 70.2 21.7573 70.2H13.1777C12.5584 70.2 12.1121 70.0634 11.8388 69.7901C11.5838 69.4986 11.4563 69.016 11.4563 68.342C11.4563 67.6681 11.5838 67.1944 11.8388 66.9212C12.1121 66.6298 12.5584 66.4841 13.1777 66.4841H14.6531L15.3362 41.4831H13.9974C13.3781 41.4831 12.9318 41.3465 12.6585 41.0732C12.4035 40.7817 12.276 40.2991 12.276 39.6251C12.276 38.951 12.4035 38.4775 12.6585 38.2043C12.9318 37.9127 13.3781 37.767 13.9974 37.767H19.7626C20.1998 37.767 20.5459 37.8399 20.8009 37.9857C21.0559 38.1314 21.2381 38.359 21.3474 38.6687L27.4131 55.3087L33.4516 38.6687C33.652 38.0676 34.1893 37.767 35.0639 37.767H40.829Z" fill="#0F0F0F"/>
<path d="M64.8818 40.4182H77.6455C85.2822 40.4182 91.4727 46.6088 91.4727 54.2455C91.4727 61.8822 85.2822 68.0728 77.6455 68.0728H64.8818C57.2451 68.0728 51.0546 61.8822 51.0546 54.2455C51.0546 46.6088 57.2451 40.4182 64.8818 40.4182Z" stroke="#0F0F0F" stroke-width="4.25455"/>
<path d="M32.2764 78.0474C32.8686 78.0474 33.2873 78.1556 33.5328 78.3722C33.7783 78.5888 33.9012 78.9498 33.9012 79.4552V86.6037C33.9012 87.1091 33.7783 87.4701 33.5328 87.6869C33.2873 87.9034 32.8686 88.0117 32.2764 88.0117C31.6844 88.0117 31.2655 87.9034 31.02 87.6869C30.7745 87.4701 30.6518 87.1091 30.6518 86.6037C30.6518 85.6217 30.428 84.7264 29.9802 83.9176C29.5471 83.109 28.8755 82.4663 27.9657 81.9896C27.0561 81.4986 25.9295 81.2532 24.5865 81.2532C23.0268 81.2532 21.6405 81.6648 20.4275 82.488C19.2288 83.3111 18.2901 84.4881 17.6114 86.0189C16.9471 87.5497 16.615 89.3402 16.615 91.3909C16.615 93.4416 16.9327 95.2323 17.5681 96.7631C18.2035 98.2794 19.1061 99.4492 20.2758 100.272C21.4456 101.096 22.8103 101.507 24.37 101.507C25.7995 101.507 27.1644 101.298 28.4639 100.879C29.7637 100.46 30.9335 99.8536 31.9733 99.0593C32.2188 98.857 32.4859 98.7559 32.7746 98.7559C33.2079 98.7559 33.5906 99.0376 33.9227 99.6009C34.1826 100.034 34.3126 100.417 34.3126 100.749C34.3126 101.182 34.0888 101.558 33.6413 101.875C32.2981 102.814 30.8324 103.522 29.2438 103.998C27.6698 104.475 26.045 104.713 24.37 104.713C22.117 104.713 20.1458 104.164 18.4562 103.067C16.781 101.955 15.4813 100.395 14.5571 98.3877C13.6473 96.3804 13.1924 94.0481 13.1924 91.3909C13.1924 88.7482 13.6617 86.4231 14.6004 84.4158C15.5391 82.394 16.8532 80.8273 18.5429 79.7151C20.2469 78.6032 22.1893 78.0474 24.37 78.0474C25.7274 78.0474 26.9331 78.2784 27.9874 78.7404C29.0417 79.2025 29.9298 79.8596 30.6518 80.7118V79.4552C30.6518 78.9498 30.7745 78.5888 31.02 78.3722C31.2655 78.1556 31.6844 78.0474 32.2764 78.0474ZM51.1006 78.5239C51.6782 78.5239 52.1404 78.6394 52.487 78.8704C52.848 79.087 53.1152 79.4409 53.2885 79.9319L60.935 101.29H62.2565C62.7475 101.29 63.094 101.406 63.2963 101.637C63.5128 101.854 63.6211 102.229 63.6211 102.764C63.6211 103.298 63.5128 103.68 63.2963 103.912C63.094 104.128 62.7475 104.236 62.2565 104.236H54.5881C54.0971 104.236 53.7433 104.128 53.5268 103.912C53.3245 103.68 53.2234 103.298 53.2234 102.764C53.2234 102.229 53.3245 101.854 53.5268 101.637C53.7433 101.406 54.0971 101.29 54.5881 101.29H57.5125L55.7362 96.1349H45.2302L43.4322 101.29H46.0535C46.5444 101.29 46.891 101.406 47.0931 101.637C47.3098 101.854 47.4181 102.229 47.4181 102.764C47.4181 103.298 47.3098 103.68 47.0931 103.912C46.891 104.128 46.5444 104.236 46.0535 104.236H38.8184C38.3274 104.236 37.9734 104.128 37.7569 103.912C37.5548 103.68 37.4538 103.298 37.4538 102.764C37.4538 102.229 37.5548 101.854 37.7569 101.637C37.9734 101.406 38.3274 101.29 38.8184 101.29H40.0314L47.2016 81.4699H43.1508C42.6596 81.4699 42.3059 81.3614 42.0893 81.1449C41.8872 80.9139 41.7859 80.5312 41.7859 79.9968C41.7859 79.4624 41.8872 79.087 42.0893 78.8704C42.3059 78.6394 42.6596 78.5239 43.1508 78.5239H51.1006ZM50.2991 81.4699L46.2483 93.1889H54.7398L50.7107 81.4699H50.2991ZM86.431 78.5239C86.922 78.5239 87.2687 78.6394 87.4708 78.8704C87.6874 79.087 87.7959 79.4624 87.7959 79.9968V88.1634C87.7959 88.6688 87.6729 89.0298 87.4274 89.2464C87.1819 89.4632 86.7633 89.5714 86.1711 89.5714C85.579 89.5714 85.1602 89.4632 84.9147 89.2464C84.6692 89.0298 84.5465 88.6688 84.5465 88.1634V81.4699H78.7628V101.29H83.8749C84.3661 101.29 84.7126 101.406 84.9147 101.637C85.1315 101.854 85.2397 102.229 85.2397 102.764C85.2397 103.298 85.1315 103.68 84.9147 103.912C84.7126 104.128 84.3661 104.236 83.8749 104.236H70.4014C69.9104 104.236 69.5564 104.128 69.3399 103.912C69.1378 103.68 69.0365 103.298 69.0365 102.764C69.0365 102.229 69.1378 101.854 69.3399 101.637C69.5564 101.406 69.9104 101.29 70.4014 101.29H75.5134V81.4699H69.7298V88.1634C69.7298 88.6688 69.6071 89.0298 69.3616 89.2464C69.1161 89.4632 68.6972 89.5714 68.1052 89.5714C67.513 89.5714 67.0943 89.4632 66.8488 89.2464C66.6033 89.0298 66.4806 88.6688 66.4806 88.1634V79.9968C66.4806 79.4624 66.5816 79.087 66.7837 78.8704C67.0005 78.6394 67.3543 78.5239 67.8452 78.5239H86.431ZM104.302 78.5239C104.88 78.5239 105.342 78.6394 105.688 78.8704C106.05 79.087 106.317 79.4409 106.49 79.9319L114.137 101.29H115.458C115.949 101.29 116.296 101.406 116.498 101.637C116.714 101.854 116.823 102.229 116.823 102.764C116.823 103.298 116.714 103.68 116.498 103.912C116.296 104.128 115.949 104.236 115.458 104.236H107.79C107.299 104.236 106.945 104.128 106.728 103.912C106.526 103.68 106.425 103.298 106.425 102.764C106.425 102.229 106.526 101.854 106.728 101.637C106.945 101.406 107.299 101.29 107.79 101.29H110.714L108.938 96.1349H98.4318L96.6338 101.29H99.2549C99.7458 101.29 100.093 101.406 100.295 101.637C100.511 101.854 100.619 102.229 100.619 102.764C100.619 103.298 100.511 103.68 100.295 103.912C100.093 104.128 99.7458 104.236 99.2549 104.236H92.0198C91.5288 104.236 91.175 104.128 90.9585 103.912C90.7562 103.68 90.6551 103.298 90.6551 102.764C90.6551 102.229 90.7562 101.854 90.9585 101.637C91.175 101.406 91.5288 101.29 92.0198 101.29H93.233L100.403 81.4699H96.3522C95.8612 81.4699 95.5075 81.3614 95.2907 81.1449C95.0886 80.9139 94.9875 80.5312 94.9875 79.9968C94.9875 79.4624 95.0886 79.087 95.2907 78.8704C95.5075 78.6394 95.8612 78.5239 96.3522 78.5239H104.302ZM103.501 81.4699L99.4499 93.1889H107.941L103.912 81.4699H103.501ZM132.138 78.5239C132.629 78.5239 132.975 78.6394 133.177 78.8704C133.394 79.087 133.502 79.4624 133.502 79.9968C133.502 80.5312 133.394 80.9139 133.177 81.1449C132.975 81.3614 132.629 81.4699 132.138 81.4699H126.895V101.29H137.618V94.1636C137.618 93.6581 137.741 93.2971 137.986 93.0806C138.232 92.864 138.65 92.7558 139.243 92.7558C139.835 92.7558 140.254 92.864 140.499 93.0806C140.745 93.2971 140.867 93.6581 140.867 94.1636V102.764C140.867 103.298 140.759 103.68 140.542 103.912C140.34 104.128 139.994 104.236 139.503 104.236H120.137C119.646 104.236 119.292 104.128 119.076 103.912C118.873 103.68 118.772 103.298 118.772 102.764C118.772 102.229 118.873 101.854 119.076 101.637C119.292 101.406 119.646 101.29 120.137 101.29H123.646V81.4699H120.137C119.646 81.4699 119.292 81.3614 119.076 81.1449C118.873 80.9139 118.772 80.5312 118.772 79.9968C118.772 79.4624 118.873 79.087 119.076 78.8704C119.292 78.6394 119.646 78.5239 120.137 78.5239H132.138ZM156.94 78.0474C159.193 78.0474 161.179 78.6032 162.897 79.7151C164.63 80.8273 165.966 82.394 166.905 84.4158C167.858 86.4231 168.334 88.7482 168.334 91.3909C168.334 94.0336 167.858 96.3659 166.905 98.3877C165.966 100.395 164.63 101.955 162.897 103.067C161.179 104.164 159.193 104.713 156.94 104.713C154.688 104.713 152.695 104.164 150.962 103.067C149.243 101.955 147.907 100.395 146.954 98.3877C146.016 96.3659 145.546 94.0336 145.546 91.3909C145.546 88.7482 146.016 86.4231 146.954 84.4158C147.907 82.394 149.243 80.8273 150.962 79.7151C152.695 78.6032 154.688 78.0474 156.94 78.0474ZM156.94 81.2532C155.352 81.2532 153.951 81.6648 152.738 82.488C151.539 83.3111 150.608 84.4881 149.943 86.0189C149.294 87.5497 148.969 89.3402 148.969 91.3909C148.969 93.4416 149.294 95.2323 149.943 96.7631C150.608 98.2794 151.539 99.4492 152.738 100.272C153.951 101.096 155.352 101.507 156.94 101.507C158.529 101.507 159.923 101.096 161.121 100.272C162.334 99.4492 163.266 98.2794 163.915 96.7631C164.58 95.2323 164.912 93.4416 164.912 91.3909C164.912 89.3402 164.58 87.5497 163.915 86.0189C163.266 84.4881 162.334 83.3111 161.121 82.488C159.923 81.6648 158.529 81.2532 156.94 81.2532ZM191.621 78.0474C192.213 78.0474 192.632 78.1556 192.877 78.3722C193.123 78.5888 193.246 78.9498 193.246 79.4552V85.7372C193.246 86.2427 193.123 86.6037 192.877 86.8202C192.632 87.037 192.213 87.1453 191.621 87.1453C191.029 87.1453 190.61 87.037 190.365 86.8202C190.119 86.6037 189.996 86.2427 189.996 85.7372C189.996 84.8708 189.758 84.0982 189.281 83.4194C188.819 82.7408 188.133 82.2136 187.224 81.8382C186.314 81.4482 185.231 81.2532 183.974 81.2532C182.371 81.2532 180.949 81.6648 179.707 82.488C178.479 83.3111 177.519 84.4881 176.826 86.0189C176.133 87.5497 175.786 89.3402 175.786 91.3909C175.786 93.4416 176.111 95.2323 176.761 96.7631C177.425 98.2794 178.357 99.4492 179.555 100.272C180.768 101.096 182.169 101.507 183.758 101.507C186.285 101.507 188.444 101.096 190.235 100.272V95.3551H184.884C184.393 95.3551 184.039 95.2468 183.823 95.0302C183.621 94.799 183.52 94.4163 183.52 93.8821C183.52 93.3478 183.621 92.9723 183.823 92.7558C184.039 92.5245 184.393 92.409 184.884 92.409H194.177C194.668 92.409 195.015 92.5245 195.217 92.7558C195.434 92.9723 195.542 93.3478 195.542 93.8821C195.542 94.4163 195.434 94.799 195.217 95.0302C195.015 95.2468 194.668 95.3551 194.177 95.3551H193.484V101.139C193.484 101.846 193.224 102.345 192.704 102.634C191.52 103.312 190.155 103.832 188.61 104.193C187.065 104.54 185.447 104.713 183.758 104.713C181.505 104.713 179.512 104.164 177.779 103.067C176.06 101.955 174.725 100.395 173.771 98.3877C172.833 96.3659 172.364 94.0336 172.364 91.3909C172.364 88.7626 172.847 86.4375 173.815 84.4158C174.797 82.394 176.147 80.8273 177.866 79.7151C179.599 78.6032 181.563 78.0474 183.758 78.0474C185.115 78.0474 186.314 78.2639 187.354 78.697C188.408 79.1159 189.289 79.7224 189.996 80.5167V79.4552C189.996 78.9498 190.119 78.5888 190.365 78.3722C190.61 78.1556 191.029 78.0474 191.621 78.0474Z" fill="#0F0F0F"/>
<path d="M25.9329 15.4774C26.2467 15.4774 26.4682 15.5512 26.5975 15.6988C26.7358 15.8373 26.8051 16.0772 26.8051 16.4187C26.8051 16.7602 26.7358 17.0047 26.5975 17.1524C26.4682 17.2908 26.2467 17.36 25.9329 17.36H25.2407L25.6006 30.0265H26.3482C26.6619 30.0265 26.8834 30.1003 27.0127 30.2479C27.1512 30.3864 27.2204 30.6263 27.2204 30.9678C27.2204 31.3092 27.1512 31.5538 27.0127 31.7015C26.8834 31.84 26.6619 31.9091 26.3482 31.9091H22.0015C21.6877 31.9091 21.4616 31.84 21.3231 31.7015C21.194 31.5538 21.1294 31.3092 21.1294 30.9678C21.1294 30.6263 21.194 30.3864 21.3231 30.2479C21.4616 30.1003 21.6877 30.0265 22.0015 30.0265H23.538L23.2336 18.689L20.4096 26.5794C20.2896 26.9026 20.1281 27.1332 19.925 27.2716C19.7312 27.4101 19.4682 27.4793 19.136 27.4793C18.8038 27.4793 18.5361 27.4101 18.3331 27.2716C18.1393 27.1332 17.9824 26.9026 17.8624 26.5794L15.0246 18.689L14.7339 30.0265H16.2705C16.5842 30.0265 16.8057 30.1003 16.9349 30.2479C17.0734 30.3864 17.1426 30.6263 17.1426 30.9678C17.1426 31.3092 17.0734 31.5538 16.9349 31.7015C16.8057 31.84 16.5842 31.9091 16.2705 31.9091H11.9238C11.61 31.9091 11.3839 31.84 11.2455 31.7015C11.1162 31.5538 11.0516 31.3092 11.0516 30.9678C11.0516 30.6263 11.1162 30.3864 11.2455 30.2479C11.3839 30.1003 11.61 30.0265 11.9238 30.0265H12.6713L13.0174 17.36H12.339C12.0253 17.36 11.7992 17.2908 11.6607 17.1524C11.5315 17.0047 11.4669 16.7602 11.4669 16.4187C11.4669 16.0772 11.5315 15.8373 11.6607 15.6988C11.7992 15.5512 12.0253 15.4774 12.339 15.4774H15.2599C15.4814 15.4774 15.6568 15.5143 15.786 15.5881C15.9152 15.6619 16.0075 15.7773 16.0628 15.9342L19.136 24.3647L22.1953 15.9342C22.2968 15.6296 22.5691 15.4774 23.012 15.4774H25.9329ZM42.9322 15.4774C43.246 15.4774 43.4674 15.5512 43.5967 15.6988C43.7352 15.8373 43.8044 16.0772 43.8044 16.4187C43.8044 16.7602 43.7352 17.0047 43.5967 17.1524C43.4674 17.2908 43.246 17.36 42.9322 17.36H41.9909L37.1734 25.0982V30.0265H40.302C40.6158 30.0265 40.8372 30.1003 40.9666 30.2479C41.1048 30.3864 41.1742 30.6263 41.1742 30.9678C41.1742 31.3092 41.1048 31.5538 40.9666 31.7015C40.8372 31.84 40.6158 31.9091 40.302 31.9091H31.9684C31.6547 31.9091 31.4287 31.84 31.2903 31.7015C31.1609 31.5538 31.0965 31.3092 31.0965 30.9678C31.0965 30.6263 31.1609 30.3864 31.2903 30.2479C31.4287 30.1003 31.6547 30.0265 31.9684 30.0265H35.097V25.0982L30.3075 17.36H29.3383C29.0245 17.36 28.7984 17.2908 28.6601 17.1524C28.5308 17.0047 28.4663 16.7602 28.4663 16.4187C28.4663 16.0772 28.5308 15.8373 28.6601 15.6988C28.7984 15.5512 29.0245 15.4774 29.3383 15.4774H33.9619C34.2757 15.4774 34.4971 15.5512 34.6265 15.6988C34.7647 15.8373 34.8341 16.0772 34.8341 16.4187C34.8341 16.7602 34.7647 17.0047 34.6265 17.1524C34.4971 17.2908 34.2757 17.36 33.9619 17.36H32.6745L36.1353 23.0218L39.6238 17.36H38.724C38.4102 17.36 38.1841 17.2908 38.0456 17.1524C37.9165 17.0047 37.8518 16.7602 37.8518 16.4187C37.8518 16.0772 37.9165 15.8373 38.0456 15.6988C38.1841 15.5512 38.4102 15.4774 38.724 15.4774H42.9322Z" fill="#0F0F0F"/>
</g>
<defs>
<clipPath id="clip0_26_58">
<rect width="216.982" height="127.636" fill="white"/>
</clipPath>
</defs>
</svg>
