<svg width="75" height="44" viewBox="0 0 75 44" fill="none" xmlns="http://www.w3.org/2000/svg">
<g clip-path="url(#clip0_99_188)">
<path d="M9.77248 1.85986H67.1213C70.9301 1.85986 74.0177 4.94748 74.0177 8.75624V43.2381H2.8761V8.75624C2.8761 5.0666 5.77361 2.05393 9.41728 1.86908L9.77248 1.85986Z" fill="#0F0F0F"/>
<path d="M9.77248 1.85986H67.1213C70.9301 1.85986 74.0177 4.94748 74.0177 8.75624V43.2381H2.8761V8.75624C2.8761 5.0666 5.77361 2.05393 9.41728 1.86908L9.77248 1.85986Z" stroke="#0F0F0F" stroke-width="0.725935"/>
<path d="M7.59462 0.408203H64.9435C68.7522 0.408203 71.8398 3.49582 71.8398 7.30458V41.7865H0.698242V7.30458C0.698242 3.61494 3.59575 0.602273 7.23945 0.417419L7.59462 0.408203Z" fill="#E3E9E6"/>
<path d="M7.59462 0.408203H64.9435C68.7522 0.408203 71.8398 3.49582 71.8398 7.30458V41.7865H0.698242V7.30458C0.698242 3.61494 3.59575 0.602273 7.23945 0.417419L7.59462 0.408203Z" stroke="#0F0F0F" stroke-width="0.725935"/>
<path d="M43.7718 12.9333C43.9832 12.9333 44.1323 12.9831 44.2194 13.0826C44.3126 13.1758 44.3592 13.3374 44.3592 13.5675C44.3592 13.7974 44.3126 13.9621 44.2194 14.0616C44.1323 14.1549 43.9832 14.2015 43.7718 14.2015H43.0538L39.7065 23.6002C39.6257 23.8178 39.5044 23.9732 39.3428 24.0664C39.1874 24.1597 38.973 24.2063 38.6994 24.2063C38.4321 24.2063 38.2177 24.1566 38.056 24.0571C37.9007 23.9639 37.7857 23.8116 37.7111 23.6002L34.3917 14.2015H33.683C33.4717 14.2015 33.3194 14.1549 33.2262 14.0616C33.1391 13.9621 33.0956 13.7974 33.0956 13.5675C33.0956 13.3374 33.1391 13.1758 33.2262 13.0826C33.3194 12.9831 33.4717 12.9333 33.683 12.9333H37.1703C37.3816 12.9333 37.5308 12.9831 37.6179 13.0826C37.7111 13.1758 37.7577 13.3374 37.7577 13.5675C37.7577 13.7974 37.7111 13.9621 37.6179 14.0616C37.5308 14.1549 37.3816 14.2015 37.1703 14.2015H35.8556L38.7087 22.444L41.59 14.2015H40.6575C40.4462 14.2015 40.2939 14.1549 40.2006 14.0616C40.1136 13.9621 40.0701 13.7974 40.0701 13.5675C40.0701 13.3374 40.1136 13.1758 40.2006 13.0826C40.2939 12.9831 40.4462 12.9333 40.6575 12.9333H43.7718ZM53.2638 12.9333C53.4751 12.9333 53.6243 12.9831 53.7113 13.0826C53.8046 13.1758 53.8512 13.3374 53.8512 13.5675C53.8512 13.7974 53.8046 13.9621 53.7113 14.0616C53.6243 14.1549 53.4751 14.2015 53.2638 14.2015H50.8768V22.7331H53.4503C53.6616 22.7331 53.8108 22.7828 53.8978 22.8823C53.9911 22.9755 54.0377 23.1372 54.0377 23.3671C54.0377 23.5971 53.9911 23.7618 53.8978 23.8613C53.8108 23.9546 53.6616 24.0012 53.4503 24.0012H46.9047C46.6934 24.0012 46.5411 23.9546 46.4478 23.8613C46.3608 23.7618 46.3173 23.5971 46.3173 23.3671C46.3173 23.1372 46.3608 22.9755 46.4478 22.8823C46.5411 22.7828 46.6934 22.7331 46.9047 22.7331H49.4782V14.2015H47.0912C46.8798 14.2015 46.7275 14.1549 46.6343 14.0616C46.5473 13.9621 46.5037 13.7974 46.5037 13.5675C46.5037 13.3374 46.5473 13.1758 46.6343 13.0826C46.7275 12.9831 46.8798 12.9333 47.0912 12.9333H53.2638ZM65.4598 19.9918C65.7147 19.9918 65.8949 20.0384 66.0006 20.1316C66.1063 20.2249 66.1591 20.3803 66.1591 20.5978V23.3671C66.1591 23.5971 66.1125 23.7618 66.0193 23.8613C65.9322 23.9546 65.783 24.0012 65.5717 24.0012H57.2359C57.0246 24.0012 56.8723 23.9546 56.779 23.8613C56.6919 23.7618 56.6485 23.5971 56.6485 23.3671C56.6485 23.1372 56.6919 22.9755 56.779 22.8823C56.8723 22.7828 57.0246 22.7331 57.2359 22.7331H58.1869V14.2015H57.2359C57.0246 14.2015 56.8723 14.1549 56.779 14.0616C56.6919 13.9621 56.6485 13.7974 56.6485 13.5675C56.6485 13.3374 56.6919 13.1758 56.779 13.0826C56.8723 12.9831 57.0246 12.9333 57.2359 12.9333H65.3852C65.5965 12.9333 65.7457 12.9831 65.8328 13.0826C65.926 13.1758 65.9727 13.3374 65.9727 13.5675V15.9357C65.9727 16.1533 65.9198 16.3087 65.8141 16.4019C65.7084 16.4952 65.5282 16.5418 65.2733 16.5418C65.0185 16.5418 64.8382 16.4952 64.7325 16.4019C64.6268 16.3087 64.574 16.1533 64.574 15.9357V14.2015H59.5856V17.6607H61.9912V16.8122C61.9912 16.5947 62.0378 16.4393 62.1311 16.346C62.2305 16.2528 62.4046 16.2062 62.6532 16.2062C62.9019 16.2062 63.0728 16.2528 63.166 16.346C63.2655 16.4393 63.3152 16.5947 63.3152 16.8122V19.7773C63.3152 19.9949 63.2655 20.1503 63.166 20.2435C63.0728 20.3368 62.9019 20.3834 62.6532 20.3834C62.4046 20.3834 62.2305 20.3368 62.1311 20.2435C62.0378 20.1503 61.9912 19.9949 61.9912 19.7773V18.9288H59.5856V22.7331H64.7605V20.5978C64.7605 20.3803 64.8133 20.2249 64.919 20.1316C65.0247 20.0384 65.2049 19.9918 65.4598 19.9918Z" fill="#0F0F0F"/>
<path d="M14.2682 12.9333C14.4796 12.9333 14.6288 12.9831 14.7158 13.0826C14.809 13.1758 14.8556 13.3374 14.8556 13.5675C14.8556 13.7974 14.809 13.9621 14.7158 14.0616C14.6288 14.1549 14.4796 14.2015 14.2682 14.2015H13.802L14.0445 22.7331H14.5479C14.7593 22.7331 14.9085 22.7828 14.9955 22.8823C15.0887 22.9755 15.1353 23.1372 15.1353 23.3671C15.1353 23.5971 15.0887 23.7618 14.9955 23.8613C14.9085 23.9546 14.7593 24.0012 14.5479 24.0012H11.6202C11.4088 24.0012 11.2565 23.9546 11.1633 23.8613C11.0763 23.7618 11.0327 23.5971 11.0327 23.3671C11.0327 23.1372 11.0763 22.9755 11.1633 22.8823C11.2565 22.7828 11.4088 22.7331 11.6202 22.7331H12.6551L12.45 15.0966L10.5479 20.4113C10.4671 20.6289 10.3583 20.7843 10.2216 20.8775C10.091 20.9708 9.91384 21.0174 9.69004 21.0174C9.46631 21.0174 9.28598 20.9708 9.14929 20.8775C9.01869 20.7843 8.91307 20.6289 8.83227 20.4113L6.92079 15.0966L6.72498 22.7331H7.76C7.97132 22.7331 8.1205 22.7828 8.20753 22.8823C8.30074 22.9755 8.34735 23.1372 8.34735 23.3671C8.34735 23.5971 8.30074 23.7618 8.20753 23.8613C8.1205 23.9546 7.97132 24.0012 7.76 24.0012H4.83218C4.62083 24.0012 4.46853 23.9546 4.37529 23.8613C4.28826 23.7618 4.24475 23.5971 4.24475 23.3671C4.24475 23.1372 4.28826 22.9755 4.37529 22.8823C4.46853 22.7828 4.62083 22.7331 4.83218 22.7331H5.33568L5.56878 14.2015H5.1119C4.90055 14.2015 4.74826 14.1549 4.65501 14.0616C4.56799 13.9621 4.52448 13.7974 4.52448 13.5675C4.52448 13.3374 4.56799 13.1758 4.65501 13.0826C4.74826 12.9831 4.90055 12.9333 5.1119 12.9333H7.0793C7.22849 12.9333 7.34659 12.9582 7.43362 13.008C7.52064 13.0577 7.5828 13.1354 7.62011 13.2411L9.69004 18.9195L11.7507 13.2411C11.8191 13.0359 12.0024 12.9333 12.3009 12.9333H14.2682Z" fill="#0F0F0F"/>
<path d="M22.4763 13.8379H26.8319C29.4379 13.8379 31.5505 15.9504 31.5505 18.5565C31.5505 21.1625 29.4379 23.275 26.8319 23.275H22.4763C19.8702 23.275 17.7577 21.1625 17.7577 18.5565C17.7577 15.9504 19.8702 13.8379 22.4763 13.8379Z" stroke="#0F0F0F" stroke-width="1.45187"/>
<path d="M11.3496 26.679C11.5517 26.679 11.6946 26.7159 11.7783 26.7898C11.8621 26.8637 11.9041 26.9869 11.9041 27.1594V29.5988C11.9041 29.7713 11.8621 29.8945 11.7783 29.9685C11.6946 30.0424 11.5517 30.0793 11.3496 30.0793C11.1476 30.0793 11.0046 30.0424 10.9209 29.9685C10.8371 29.8945 10.7952 29.7713 10.7952 29.5988C10.7952 29.2637 10.7188 28.9582 10.566 28.6822C10.4182 28.4062 10.1891 28.1869 9.87857 28.0243C9.56816 27.8567 9.18371 27.7729 8.72542 27.7729C8.19317 27.7729 7.72008 27.9134 7.30613 28.1943C6.8971 28.4752 6.57677 28.8769 6.34516 29.3993C6.11846 29.9216 6.00512 30.5327 6.00512 31.2325C6.00512 31.9323 6.11353 32.5433 6.33037 33.0657C6.54721 33.5832 6.85521 33.9824 7.25439 34.2632C7.65358 34.5442 8.11927 34.6846 8.65152 34.6846C9.13935 34.6846 9.60511 34.6131 10.0486 34.4702C10.4921 34.3273 10.8913 34.1204 11.2462 33.8493C11.3299 33.7803 11.4211 33.7458 11.5196 33.7458C11.6675 33.7458 11.7981 33.8419 11.9114 34.0341C12.0001 34.1819 12.0445 34.3125 12.0445 34.4259C12.0445 34.5737 11.9681 34.7018 11.8154 34.8103C11.357 35.1306 10.8568 35.3721 10.3147 35.5347C9.77759 35.6973 9.22313 35.7786 8.65152 35.7786C7.88269 35.7786 7.21004 35.5914 6.63345 35.2168C6.06179 34.8374 5.61826 34.3051 5.30287 33.6201C4.9924 32.9351 4.83716 32.1392 4.83716 31.2325C4.83716 30.3306 4.99732 29.5372 5.31765 28.8522C5.63797 28.1623 6.08643 27.6276 6.66301 27.2481C7.24453 26.8686 7.90737 26.679 8.65152 26.679C9.11474 26.679 9.5262 26.7578 9.88598 26.9155C10.2457 27.0731 10.5488 27.2974 10.7952 27.5882V27.1594C10.7952 26.9869 10.8371 26.8637 10.9209 26.7898C11.0046 26.7159 11.1476 26.679 11.3496 26.679ZM17.7734 26.8416C17.9705 26.8416 18.1282 26.881 18.2465 26.9598C18.3697 27.0337 18.4609 27.1545 18.52 27.3221L21.1294 34.6107H21.5803C21.7479 34.6107 21.8661 34.6501 21.9352 34.7289C22.0091 34.8029 22.046 34.931 22.046 35.1134C22.046 35.2957 22.0091 35.4263 21.9352 35.5052C21.8661 35.5791 21.7479 35.616 21.5803 35.616H18.9635C18.796 35.616 18.6752 35.5791 18.6013 35.5052C18.5323 35.4263 18.4978 35.2957 18.4978 35.1134C18.4978 34.931 18.5323 34.8029 18.6013 34.7289C18.6752 34.6501 18.796 34.6107 18.9635 34.6107H19.9614L19.3553 32.8514H15.7701L15.1566 34.6107H16.051C16.2186 34.6107 16.3369 34.6501 16.4058 34.7289C16.4798 34.8029 16.5167 34.931 16.5167 35.1134C16.5167 35.2957 16.4798 35.4263 16.4058 35.5052C16.3369 35.5791 16.2186 35.616 16.051 35.616H13.5821C13.4145 35.616 13.2937 35.5791 13.2198 35.5052C13.1509 35.4263 13.1164 35.2957 13.1164 35.1134C13.1164 34.931 13.1509 34.8029 13.2198 34.7289C13.2937 34.6501 13.4145 34.6107 13.5821 34.6107H13.996L16.4428 27.8469H15.0605C14.8929 27.8469 14.7722 27.8099 14.6983 27.736C14.6293 27.6572 14.5948 27.5266 14.5948 27.3442C14.5948 27.1618 14.6293 27.0337 14.6983 26.9598C14.7722 26.881 14.8929 26.8416 15.0605 26.8416H17.7734ZM17.4999 27.8469L16.1175 31.846H19.0153L17.6403 27.8469H17.4999ZM29.8299 26.8416C29.9975 26.8416 30.1158 26.881 30.1848 26.9598C30.2587 27.0337 30.2957 27.1618 30.2957 27.3442V30.1311C30.2957 30.3035 30.2537 30.4267 30.17 30.5006C30.0862 30.5746 29.9433 30.6116 29.7412 30.6116C29.5392 30.6116 29.3963 30.5746 29.3125 30.5006C29.2287 30.4267 29.1868 30.3035 29.1868 30.1311V27.8469H27.2132V34.6107H28.9577C29.1253 34.6107 29.2435 34.6501 29.3125 34.7289C29.3865 34.8029 29.4234 34.931 29.4234 35.1134C29.4234 35.2957 29.3865 35.4263 29.3125 35.5052C29.2435 35.5791 29.1253 35.616 28.9577 35.616H24.3598C24.1923 35.616 24.0715 35.5791 23.9976 35.5052C23.9286 35.4263 23.894 35.2957 23.894 35.1134C23.894 34.931 23.9286 34.8029 23.9976 34.7289C24.0715 34.6501 24.1923 34.6107 24.3598 34.6107H26.1043V27.8469H24.1306V30.1311C24.1306 30.3035 24.0887 30.4267 24.005 30.5006C23.9212 30.5746 23.7783 30.6116 23.5762 30.6116C23.3741 30.6116 23.2313 30.5746 23.1475 30.5006C23.0637 30.4267 23.0218 30.3035 23.0218 30.1311V27.3442C23.0218 27.1618 23.0563 27.0337 23.1253 26.9598C23.1993 26.881 23.32 26.8416 23.4875 26.8416H29.8299ZM35.9284 26.8416C36.1256 26.8416 36.2833 26.881 36.4015 26.9598C36.5248 27.0337 36.6159 27.1545 36.6751 27.3221L39.2845 34.6107H39.7354C39.9029 34.6107 40.0213 34.6501 40.0902 34.7289C40.1641 34.8029 40.2012 34.931 40.2012 35.1134C40.2012 35.2957 40.1641 35.4263 40.0902 35.5052C40.0213 35.5791 39.9029 35.616 39.7354 35.616H37.1186C36.9511 35.616 36.8303 35.5791 36.7564 35.5052C36.6874 35.4263 36.6529 35.2957 36.6529 35.1134C36.6529 34.931 36.6874 34.8029 36.7564 34.7289C36.8303 34.6501 36.9511 34.6107 37.1186 34.6107H38.1166L37.5104 32.8514H33.9252L33.3117 34.6107H34.2061C34.3736 34.6107 34.492 34.6501 34.5609 34.7289C34.6348 34.8029 34.6718 34.931 34.6718 35.1134C34.6718 35.2957 34.6348 35.4263 34.5609 35.5052C34.492 35.5791 34.3736 35.616 34.2061 35.616H31.7371C31.5696 35.616 31.4489 35.5791 31.375 35.5052C31.3059 35.4263 31.2714 35.2957 31.2714 35.1134C31.2714 34.931 31.3059 34.8029 31.375 34.7289C31.4489 34.6501 31.5696 34.6107 31.7371 34.6107H32.1511L34.5979 27.8469H33.2156C33.048 27.8469 32.9273 27.8099 32.8533 27.736C32.7844 27.6572 32.7499 27.5266 32.7499 27.3442C32.7499 27.1618 32.7844 27.0337 32.8533 26.9598C32.9273 26.881 33.048 26.8416 33.2156 26.8416H35.9284ZM35.655 27.8469L34.2727 31.846H37.1704L35.7954 27.8469H35.655ZM45.4274 26.8416C45.5949 26.8416 45.7132 26.881 45.7822 26.9598C45.8561 27.0337 45.8931 27.1618 45.8931 27.3442C45.8931 27.5266 45.8561 27.6572 45.7822 27.736C45.7132 27.8099 45.5949 27.8469 45.4274 27.8469H43.6385V34.6107H47.2976V32.1786C47.2976 32.0062 47.3395 31.883 47.4233 31.8091C47.507 31.7352 47.6499 31.6982 47.852 31.6982C48.054 31.6982 48.197 31.7352 48.2807 31.8091C48.3645 31.883 48.4064 32.0062 48.4064 32.1786V35.1134C48.4064 35.2957 48.3694 35.4263 48.2955 35.5052C48.2265 35.5791 48.1083 35.616 47.9407 35.616H41.3321C41.1645 35.616 41.0438 35.5791 40.9699 35.5052C40.9009 35.4263 40.8664 35.2957 40.8664 35.1134C40.8664 34.931 40.9009 34.8029 40.9699 34.7289C41.0438 34.6501 41.1645 34.6107 41.3321 34.6107H42.5297V27.8469H41.3321C41.1645 27.8469 41.0438 27.8099 40.9699 27.736C40.9009 27.6572 40.8664 27.5266 40.8664 27.3442C40.8664 27.1618 40.9009 27.0337 40.9699 26.9598C41.0438 26.881 41.1645 26.8416 41.3321 26.8416H45.4274ZM53.8913 26.679C54.6601 26.679 55.3378 26.8686 55.9242 27.2481C56.5156 27.6276 56.9714 28.1623 57.2918 28.8522C57.617 29.5372 57.7796 30.3306 57.7796 31.2325C57.7796 32.1343 57.617 32.9302 57.2918 33.6201C56.9714 34.3051 56.5156 34.8374 55.9242 35.2168C55.3378 35.5914 54.6601 35.7786 53.8913 35.7786C53.1226 35.7786 52.4425 35.5914 51.8511 35.2168C51.2647 34.8374 50.8088 34.3051 50.4836 33.6201C50.1632 32.9302 50.0031 32.1343 50.0031 31.2325C50.0031 30.3306 50.1632 29.5372 50.4836 28.8522C50.8088 28.1623 51.2647 27.6276 51.8511 27.2481C52.4425 26.8686 53.1226 26.679 53.8913 26.679ZM53.8913 27.7729C53.3493 27.7729 52.8713 27.9134 52.4573 28.1943C52.0483 28.4752 51.7304 28.8769 51.5037 29.3993C51.282 29.9216 51.171 30.5327 51.171 31.2325C51.171 31.9323 51.282 32.5433 51.5037 33.0657C51.7304 33.5832 52.0483 33.9824 52.4573 34.2632C52.8713 34.5442 53.3493 34.6846 53.8913 34.6846C54.4335 34.6846 54.909 34.5442 55.318 34.2632C55.732 33.9824 56.0498 33.5832 56.2716 33.0657C56.4983 32.5433 56.6116 31.9323 56.6116 31.2325C56.6116 30.5327 56.4983 29.9216 56.2716 29.3993C56.0498 28.8769 55.732 28.4752 55.318 28.1943C54.909 27.9134 54.4335 27.7729 53.8913 27.7729ZM65.7262 26.679C65.9282 26.679 66.0711 26.7159 66.1549 26.7898C66.2387 26.8637 66.2806 26.9869 66.2806 27.1594V29.3031C66.2806 29.4756 66.2387 29.5988 66.1549 29.6727C66.0711 29.7467 65.9282 29.7836 65.7262 29.7836C65.5241 29.7836 65.3812 29.7467 65.2974 29.6727C65.2137 29.5988 65.1718 29.4756 65.1718 29.3031C65.1718 29.0075 65.0904 28.7438 64.9278 28.5122C64.7701 28.2806 64.536 28.1007 64.2255 27.9726C63.9151 27.8395 63.5455 27.7729 63.1167 27.7729C62.5697 27.7729 62.0843 27.9134 61.6605 28.1943C61.2416 28.4752 60.9139 28.8769 60.6773 29.3993C60.4408 29.9216 60.3225 30.5327 60.3225 31.2325C60.3225 31.9323 60.4334 32.5433 60.6552 33.0657C60.8819 33.5832 61.1997 33.9824 61.6088 34.2632C62.0227 34.5442 62.5007 34.6846 63.0428 34.6846C63.9052 34.6846 64.642 34.5442 65.2531 34.2632V32.5852H63.4272C63.2597 32.5852 63.139 32.5483 63.065 32.4744C62.996 32.3955 62.9615 32.2649 62.9615 32.0826C62.9615 31.9002 62.996 31.7721 63.065 31.6982C63.139 31.6193 63.2597 31.5799 63.4272 31.5799H66.5985C66.766 31.5799 66.8843 31.6193 66.9532 31.6982C67.0272 31.7721 67.0642 31.9002 67.0642 32.0826C67.0642 32.2649 67.0272 32.3955 66.9532 32.4744C66.8843 32.5483 66.766 32.5852 66.5985 32.5852H66.3619V34.5589C66.3619 34.8004 66.2732 34.9704 66.0958 35.069C65.6917 35.3006 65.2259 35.478 64.6986 35.6012C64.1714 35.7195 63.6194 35.7786 63.0428 35.7786C62.274 35.7786 61.594 35.5914 61.0026 35.2168C60.4161 34.8374 59.9603 34.3051 59.635 33.6201C59.3147 32.9302 59.1546 32.1343 59.1546 31.2325C59.1546 30.3356 59.3197 29.5421 59.6498 28.8522C59.9849 28.1623 60.4457 27.6276 61.0321 27.2481C61.6236 26.8686 62.2937 26.679 63.0428 26.679C63.5061 26.679 63.9151 26.7529 64.2699 26.9007C64.6297 27.0436 64.9303 27.2506 65.1718 27.5216V27.1594C65.1718 26.9869 65.2137 26.8637 65.2974 26.7898C65.3812 26.7159 65.5241 26.679 65.7262 26.679Z" fill="#0F0F0F"/>
<path d="M9.18495 5.32666C9.29203 5.32666 9.3676 5.35186 9.41173 5.40224C9.45892 5.44949 9.48258 5.53137 9.48258 5.64789C9.48258 5.76442 9.45892 5.84787 9.41173 5.89826C9.3676 5.9455 9.29203 5.96912 9.18495 5.96912H8.94873L9.07156 10.2916H9.32665C9.43373 10.2916 9.5093 10.3168 9.55344 10.3671C9.60069 10.4144 9.62429 10.4963 9.62429 10.6128C9.62429 10.7293 9.60069 10.8128 9.55344 10.8632C9.5093 10.9104 9.43373 10.934 9.32665 10.934H7.84335C7.73628 10.934 7.65911 10.9104 7.61185 10.8632C7.56779 10.8128 7.54574 10.7293 7.54574 10.6128C7.54574 10.4963 7.56779 10.4144 7.61185 10.3671C7.65911 10.3168 7.73628 10.2916 7.84335 10.2916H8.36769L8.26381 6.42263L7.30009 9.11526C7.25916 9.22553 7.20404 9.30422 7.13475 9.35147C7.06862 9.39873 6.97886 9.42233 6.86549 9.42233C6.75211 9.42233 6.66078 9.39873 6.5915 9.35147C6.52537 9.30422 6.47182 9.22553 6.43089 9.11526L5.46247 6.42263L5.36327 10.2916H5.88763C5.9947 10.2916 6.07028 10.3168 6.11438 10.3671C6.16161 10.4144 6.18524 10.4963 6.18524 10.6128C6.18524 10.7293 6.16161 10.8128 6.11438 10.8632C6.07028 10.9104 5.9947 10.934 5.88763 10.934H4.4043C4.29723 10.934 4.22007 10.9104 4.17283 10.8632C4.12874 10.8128 4.10669 10.7293 4.10669 10.6128C4.10669 10.4963 4.12874 10.4144 4.17283 10.3671C4.22007 10.3168 4.29723 10.2916 4.4043 10.2916H4.65939L4.7775 5.96912H4.54602C4.43894 5.96912 4.36178 5.9455 4.31455 5.89826C4.27045 5.84787 4.24841 5.76442 4.24841 5.64789C4.24841 5.53137 4.27045 5.44949 4.31455 5.40224C4.36178 5.35186 4.43894 5.32666 4.54602 5.32666H5.54278C5.61836 5.32666 5.6782 5.33926 5.72229 5.36445C5.76638 5.38965 5.79787 5.42902 5.81677 5.48255L6.86549 8.35948L7.90948 5.48255C7.94411 5.37863 8.03703 5.32666 8.18817 5.32666H9.18495ZM14.986 5.32666C15.093 5.32666 15.1686 5.35186 15.2128 5.40224C15.26 5.44949 15.2836 5.53137 15.2836 5.64789C15.2836 5.76442 15.26 5.84787 15.2128 5.89826C15.1686 5.9455 15.093 5.96912 14.986 5.96912H14.6647L13.0208 8.60979V10.2916H14.0884C14.1955 10.2916 14.2711 10.3168 14.3152 10.3671C14.3624 10.4144 14.3861 10.4963 14.3861 10.6128C14.3861 10.7293 14.3624 10.8128 14.3152 10.8632C14.2711 10.9104 14.1955 10.934 14.0884 10.934H11.2446C11.1375 10.934 11.0604 10.9104 11.0131 10.8632C10.969 10.8128 10.947 10.7293 10.947 10.6128C10.947 10.4963 10.969 10.4144 11.0131 10.3671C11.0604 10.3168 11.1375 10.2916 11.2446 10.2916H12.3122V8.60979L10.6778 5.96912H10.347C10.24 5.96912 10.1628 5.9455 10.1156 5.89826C10.0715 5.84787 10.0495 5.76442 10.0495 5.64789C10.0495 5.53137 10.0715 5.44949 10.1156 5.40224C10.1628 5.35186 10.24 5.32666 10.347 5.32666H11.9248C12.0319 5.32666 12.1075 5.35186 12.1516 5.40224C12.1988 5.44949 12.2225 5.53137 12.2225 5.64789C12.2225 5.76442 12.1988 5.84787 12.1516 5.89826C12.1075 5.9455 12.0319 5.96912 11.9248 5.96912H11.4855L12.6665 7.9012L13.857 5.96912H13.5499C13.4428 5.96912 13.3657 5.9455 13.3184 5.89826C13.2744 5.84787 13.2523 5.76442 13.2523 5.64789C13.2523 5.53137 13.2744 5.44949 13.3184 5.40224C13.3657 5.35186 13.4428 5.32666 13.5499 5.32666H14.986Z" fill="#0F0F0F"/>
</g>
<defs>
<clipPath id="clip0_99_188">
<rect width="74.0453" height="43.5561" fill="white" transform="translate(0.335327 0.045166)"/>
</clipPath>
</defs>
</svg>
